<mxfile host="Electron" modified="2023-04-12T02:30:35.120Z" agent="Mozilla/5.0 (Windows NT 10.0; Win64; x64) AppleWebKit/537.36 (KHTML, like Gecko) draw.io/21.1.2 Chrome/106.0.5249.199 Electron/21.4.3 Safari/537.36" etag="k7RWeU6h5b8KblacXBUN" version="21.1.2" type="device">
  <diagram name="Page-1" id="7oLeeqB4X83rpsUO6XK-">
    <mxGraphModel dx="1430" dy="825" grid="0" gridSize="10" guides="1" tooltips="1" connect="1" arrows="1" fold="1" page="1" pageScale="1" pageWidth="827" pageHeight="1169" math="0" shadow="0">
      <root>
        <mxCell id="0" />
        <mxCell id="1" parent="0" />
        <UserObject label="" tags="Background" id="Cari82qWPhB8FJyJu9n--4">
          <mxCell style="vsdxID=24;fillColor=#345593;gradientColor=none;fillOpacity=0;shape=stencil(nZBLDoAgDERP0z3SIyjew0SURgSD+Lu9kMZoXLhwN9N5bdMClrNpJg1SzDH4QW/URgNYgZTkjA4UkwJUgGXng+6DX1zLfmoymdXo1zxh5z6RO6Q42BWCfc2oJfdAr/AX/IH+BF/rk7hv7MjaZ/L+RirxJ1Gd);strokeColor=#233862;strokeWidth=2;points=[];labelBackgroundColor=none;rounded=1;html=1;whiteSpace=wrap;" vertex="1" parent="1">
            <mxGeometry x="50" y="20" width="319" height="539" as="geometry" />
          </mxCell>
        </UserObject>
        <UserObject label="" tags="Background" id="Cari82qWPhB8FJyJu9n--12">
          <mxCell style="vsdxID=186;fillColor=#345593;gradientColor=none;fillOpacity=0;shape=stencil(nZBLDoAgDERP0z3SIyjew0SURgSD+Lu9kMZoXLhwN9N5bdMClrNpJg1SzDH4QW/URgNYgZTkjA4UkwJUgGXng+6DX1zLfmoymdXo1zxh5z6RO6Q42BWCfc2oJfdAr/AX/IH+BF/rk7hv7MjaZ/L+RirxJ1Gd);strokeColor=#233862;strokeWidth=2;points=[];labelBackgroundColor=none;rounded=1;html=1;whiteSpace=wrap;" vertex="1" parent="1">
            <mxGeometry x="20" y="560" width="319" height="320" as="geometry" />
          </mxCell>
        </UserObject>
        <UserObject label="" tags="Background" id="Cari82qWPhB8FJyJu9n--16">
          <mxCell style="vsdxID=244;fillColor=#345593;gradientColor=none;fillOpacity=0;shape=stencil(nZBLDoAgDERP0z3SIyjew0SURgSD+Lu9kMZoXLhwN9N5bdMClrNpJg1SzDH4QW/URgNYgZTkjA4UkwJUgGXng+6DX1zLfmoymdXo1zxh5z6RO6Q42BWCfc2oJfdAr/AX/IH+BF/rk7hv7MjaZ/L+RirxJ1Gd);strokeColor=#233862;strokeWidth=2;points=[];labelBackgroundColor=none;rounded=1;html=1;whiteSpace=wrap;" vertex="1" parent="1">
            <mxGeometry x="436" y="490" width="319" height="450" as="geometry" />
          </mxCell>
        </UserObject>
        <UserObject label="" tags="Background" id="Cari82qWPhB8FJyJu9n--20">
          <mxCell style="vsdxID=285;fillColor=#345593;gradientColor=none;fillOpacity=0;shape=stencil(nZBLDoAgDERP0z3SIyjew0SURgSD+Lu9kMZoXLhwN9N5bdMClrNpJg1SzDH4QW/URgNYgZTkjA4UkwJUgGXng+6DX1zLfmoymdXo1zxh5z6RO6Q42BWCfc2oJfdAr/AX/IH+BF/rk7hv7MjaZ/L+RirxJ1Gd);strokeColor=#233862;strokeWidth=2;points=[];labelBackgroundColor=none;rounded=1;html=1;whiteSpace=wrap;" vertex="1" parent="1">
            <mxGeometry x="71" y="1281" width="319" height="800" as="geometry" />
          </mxCell>
        </UserObject>
        <UserObject label="" tags="Background" id="Cari82qWPhB8FJyJu9n--24">
          <mxCell style="vsdxID=342;fillColor=#345593;gradientColor=none;fillOpacity=0;shape=stencil(nZBLDoAgDERP0z3SIyjew0SURgSD+Lu9kMZoXLhwN9N5bdMClrNpJg1SzDH4QW/URgNYgZTkjA4UkwJUgGXng+6DX1zLfmoymdXo1zxh5z6RO6Q42BWCfc2oJfdAr/AX/IH+BF/rk7hv7MjaZ/L+RirxJ1Gd);strokeColor=#233862;strokeWidth=2;points=[];labelBackgroundColor=none;rounded=1;html=1;whiteSpace=wrap;" vertex="1" parent="1">
            <mxGeometry x="449" y="1238" width="319" height="800" as="geometry" />
          </mxCell>
        </UserObject>
        <UserObject label="" tags="Background" id="Cari82qWPhB8FJyJu9n--25">
          <mxCell style="vsdxID=18;fillColor=none;gradientColor=none;strokeColor=none;strokeWidth=2;points=[];labelBackgroundColor=none;rounded=1;html=1;whiteSpace=wrap;fontColor=#FFFFFF;" vertex="1" parent="1">
            <mxGeometry x="20" y="20" width="319" height="519" as="geometry" />
          </mxCell>
        </UserObject>
        <mxCell id="Cari82qWPhB8FJyJu9n--26" style="vsdxID=19;fillColor=#3d64ac;gradientColor=none;fillOpacity=0;shape=stencil(nZBLDoAgDERP0z3SIyjew0SURgSD+Lu9kMZoXLhwN9O+tukAlrNpJg1SzDH4QW/URgNYgZTkjA4UkwJUgGXng+6DX1zLfmoymdXo17xh5zmRJ6Q42BWCfc2oJfdAr+Yv+AP9Cb7OJ3H/2JG1HNGz/84klThPVCc=);strokeColor=#233862;strokeWidth=2;points=[];labelBackgroundColor=none;rounded=1;html=1;whiteSpace=wrap;" vertex="1" parent="Cari82qWPhB8FJyJu9n--25">
          <mxGeometry width="319" height="519" as="geometry" />
        </mxCell>
        <mxCell id="Cari82qWPhB8FJyJu9n--27" value="&lt;div style=&quot;font-size: 1px&quot;&gt;&lt;p style=&quot;margin: 0px; text-indent: 0px; vertical-align: middle; direction: ltr;&quot;&gt;&lt;font style=&quot;font-size: 14.82px; font-family: &amp;quot;JetBrains Mono&amp;quot;; direction: ltr; letter-spacing: 0px; line-height: 120%; opacity: 1;&quot;&gt;DIO_init&lt;/font&gt;&lt;/p&gt;&lt;/div&gt;" style="verticalAlign=middle;align=center;overflow=width;vsdxID=20;fillColor=#3d64ac;gradientColor=none;shape=stencil(nZBLDoAgDERP0z3SIyjew0SURgSD+Lu9kMZoXLhwN9O+tukAlrNpJg1SzDH4QW/URgNYgZTkjA4UkwJUgGXng+6DX1zLfmoymdXo17xh5zmRJ6Q42BWCfc2oJfdAr+Yv+AP9Cb7OJ3H/2JG1HNGz/84klThPVCc=);strokeColor=#233862;strokeWidth=2;points=[];labelBackgroundColor=none;rounded=1;html=1;whiteSpace=wrap;spacing=2;spacingTop=0;fontColor=#ffffff;" vertex="1" parent="Cari82qWPhB8FJyJu9n--25">
          <mxGeometry y="-0.0021150278293156077" width="319" height="28.88682745825603" as="geometry" />
        </mxCell>
        <mxCell id="Cari82qWPhB8FJyJu9n--205" value="False" style="text;html=1;strokeColor=none;fillColor=none;align=center;verticalAlign=middle;whiteSpace=wrap;rounded=0;fontSize=11;fontFamily=Helvetica;fontColor=#CC0000;" vertex="1" parent="Cari82qWPhB8FJyJu9n--25">
          <mxGeometry x="170" y="234.72356215213358" width="39" height="17.33209647495362" as="geometry" />
        </mxCell>
        <mxCell id="Cari82qWPhB8FJyJu9n--211" value="False" style="text;html=1;strokeColor=none;fillColor=none;align=center;verticalAlign=middle;whiteSpace=wrap;rounded=0;fontSize=11;fontFamily=Helvetica;fontColor=#CC0000;" vertex="1" parent="Cari82qWPhB8FJyJu9n--25">
          <mxGeometry x="170" y="138.43413729128014" width="39" height="17.33209647495362" as="geometry" />
        </mxCell>
        <UserObject label="" tags="Background" id="Cari82qWPhB8FJyJu9n--31">
          <mxCell style="vsdxID=187;fillColor=none;gradientColor=none;strokeColor=none;strokeWidth=2;points=[];labelBackgroundColor=none;rounded=1;html=1;whiteSpace=wrap;" vertex="1" parent="1">
            <mxGeometry x="20" y="560" width="319" height="320" as="geometry" />
          </mxCell>
        </UserObject>
        <mxCell id="Cari82qWPhB8FJyJu9n--32" style="vsdxID=188;fillColor=#3d64ac;gradientColor=none;fillOpacity=0;shape=stencil(nZBLDoAgDERP0z3SIyjew0SURgSD+Lu9kMZoXLhwN9O+tukAlrNpJg1SzDH4QW/URgNYgZTkjA4UkwJUgGXng+6DX1zLfmoymdXo17xh5zmRJ6Q42BWCfc2oJfdAr+Yv+AP9Cb7OJ3H/2JG1HNGz/84klThPVCc=);strokeColor=#233862;strokeWidth=2;points=[];labelBackgroundColor=none;rounded=1;html=1;whiteSpace=wrap;" vertex="1" parent="Cari82qWPhB8FJyJu9n--31">
          <mxGeometry width="319" height="320" as="geometry" />
        </mxCell>
        <mxCell id="Cari82qWPhB8FJyJu9n--218" value="&lt;div style=&quot;font-size: 1px&quot;&gt;&lt;p style=&quot;margin: 0px; text-indent: 0px; vertical-align: middle; direction: ltr;&quot;&gt;&lt;font style=&quot;font-size: 14.82px; font-family: &amp;quot;JetBrains Mono&amp;quot;; direction: ltr; letter-spacing: 0px; line-height: 120%; opacity: 1;&quot;&gt;DIO_read&lt;/font&gt;&lt;/p&gt;&lt;/div&gt;" style="verticalAlign=middle;align=center;overflow=width;vsdxID=20;fillColor=#3d64ac;gradientColor=none;shape=stencil(nZBLDoAgDERP0z3SIyjew0SURgSD+Lu9kMZoXLhwN9O+tukAlrNpJg1SzDH4QW/URgNYgZTkjA4UkwJUgGXng+6DX1zLfmoymdXo17xh5zmRJ6Q42BWCfc2oJfdAr+Yv+AP9Cb7OJ3H/2JG1HNGz/84klThPVCc=);strokeColor=#233862;strokeWidth=2;points=[];labelBackgroundColor=none;rounded=1;html=1;whiteSpace=wrap;spacing=2;spacingTop=0;fontColor=#ffffff;" vertex="1" parent="Cari82qWPhB8FJyJu9n--31">
          <mxGeometry y="0.08" width="319" height="29.92" as="geometry" />
        </mxCell>
        <UserObject label="" tags="Background" id="Cari82qWPhB8FJyJu9n--34">
          <mxCell style="vsdxID=245;fillColor=none;gradientColor=none;strokeColor=none;strokeWidth=2;points=[];labelBackgroundColor=none;rounded=1;html=1;whiteSpace=wrap;" vertex="1" parent="1">
            <mxGeometry x="434" y="490" width="321" height="450" as="geometry" />
          </mxCell>
        </UserObject>
        <mxCell id="Cari82qWPhB8FJyJu9n--35" style="vsdxID=246;fillColor=#3d64ac;gradientColor=none;fillOpacity=0;shape=stencil(nZBLDoAgDERP0z3SIyjew0SURgSD+Lu9kMZoXLhwN9O+tukAlrNpJg1SzDH4QW/URgNYgZTkjA4UkwJUgGXng+6DX1zLfmoymdXo17xh5zmRJ6Q42BWCfc2oJfdAr+Yv+AP9Cb7OJ3H/2JG1HNGz/84klThPVCc=);strokeColor=#233862;strokeWidth=2;points=[];labelBackgroundColor=none;rounded=1;html=1;whiteSpace=wrap;" vertex="1" parent="Cari82qWPhB8FJyJu9n--34">
          <mxGeometry width="321" height="450" as="geometry" />
        </mxCell>
        <mxCell id="Cari82qWPhB8FJyJu9n--219" value="&lt;div style=&quot;font-size: 1px&quot;&gt;&lt;p style=&quot;margin: 0px; text-indent: 0px; vertical-align: middle; direction: ltr;&quot;&gt;&lt;font style=&quot;font-size: 14.82px; font-family: &amp;quot;JetBrains Mono&amp;quot;; direction: ltr; letter-spacing: 0px; line-height: 120%; opacity: 1;&quot;&gt;DIO_toggle&lt;/font&gt;&lt;/p&gt;&lt;/div&gt;" style="verticalAlign=middle;align=center;overflow=width;vsdxID=20;fillColor=#3d64ac;gradientColor=none;shape=stencil(nZBLDoAgDERP0z3SIyjew0SURgSD+Lu9kMZoXLhwN9O+tukAlrNpJg1SzDH4QW/URgNYgZTkjA4UkwJUgGXng+6DX1zLfmoymdXo17xh5zmRJ6Q42BWCfc2oJfdAr+Yv+AP9Cb7OJ3H/2JG1HNGz/84klThPVCc=);strokeColor=#233862;strokeWidth=2;points=[];labelBackgroundColor=none;rounded=1;html=1;whiteSpace=wrap;spacing=2;spacingTop=0;fontColor=#ffffff;" vertex="1" parent="Cari82qWPhB8FJyJu9n--34">
          <mxGeometry x="2" width="319" height="28.88682745825603" as="geometry" />
        </mxCell>
        <UserObject label="" tags="Background" id="Cari82qWPhB8FJyJu9n--40">
          <mxCell style="vsdxID=343;fillColor=none;gradientColor=none;strokeColor=none;strokeWidth=2;points=[];labelBackgroundColor=none;rounded=1;html=1;whiteSpace=wrap;" vertex="1" parent="1">
            <mxGeometry x="449" y="1238" width="319" height="800" as="geometry" />
          </mxCell>
        </UserObject>
        <mxCell id="Cari82qWPhB8FJyJu9n--41" style="vsdxID=344;fillColor=#3d64ac;gradientColor=none;fillOpacity=0;shape=stencil(nZBLDoAgDERP0z3SIyjew0SURgSD+Lu9kMZoXLhwN9O+tukAlrNpJg1SzDH4QW/URgNYgZTkjA4UkwJUgGXng+6DX1zLfmoymdXo17xh5zmRJ6Q42BWCfc2oJfdAr+Yv+AP9Cb7OJ3H/2JG1HNGz/84klThPVCc=);strokeColor=#233862;strokeWidth=2;points=[];labelBackgroundColor=none;rounded=1;html=1;whiteSpace=wrap;" vertex="1" parent="Cari82qWPhB8FJyJu9n--40">
          <mxGeometry width="319" height="800" as="geometry" />
        </mxCell>
        <mxCell id="Cari82qWPhB8FJyJu9n--221" value="&lt;div style=&quot;font-size: 1px&quot;&gt;&lt;p style=&quot;margin: 0px; text-indent: 0px; vertical-align: middle; direction: ltr;&quot;&gt;&lt;font style=&quot;font-size: 14.82px; font-family: &amp;quot;JetBrains Mono&amp;quot;; direction: ltr; letter-spacing: 0px; line-height: 120%; opacity: 1;&quot;&gt;DIO_portToggle&lt;/font&gt;&lt;/p&gt;&lt;/div&gt;" style="verticalAlign=middle;align=center;overflow=width;vsdxID=20;fillColor=#3d64ac;gradientColor=none;shape=stencil(nZBLDoAgDERP0z3SIyjew0SURgSD+Lu9kMZoXLhwN9O+tukAlrNpJg1SzDH4QW/URgNYgZTkjA4UkwJUgGXng+6DX1zLfmoymdXo17xh5zmRJ6Q42BWCfc2oJfdAr+Yv+AP9Cb7OJ3H/2JG1HNGz/84klThPVCc=);strokeColor=#233862;strokeWidth=2;points=[];labelBackgroundColor=none;rounded=1;html=1;whiteSpace=wrap;spacing=2;spacingTop=0;fontColor=#ffffff;" vertex="1" parent="Cari82qWPhB8FJyJu9n--40">
          <mxGeometry width="319" height="29.92" as="geometry" />
        </mxCell>
        <UserObject label="" tags="Background" id="Cari82qWPhB8FJyJu9n--43">
          <mxCell style="vsdxID=25;fillColor=#345593;gradientColor=none;shape=stencil(nZBLDoAgDERP0z3SIyDew0QUooJB/N1eSGM0LFywm2lf23QAxarbRQFna/BuVIfpggasgXNjtfImRAUoAUXvvBq822xHfmkTmdTs9rThpDmWJji7yFWMfEPoZOwHfZpF8A9aCGbno3h/jCYPIJYoPJQ3);strokeColor=#233862;strokeWidth=2;points=[];labelBackgroundColor=none;rounded=1;html=1;whiteSpace=wrap;" vertex="1" parent="1">
            <mxGeometry x="38" y="140" width="345" height="488" as="geometry" />
          </mxCell>
        </UserObject>
        <UserObject label="" tags="Background" id="Cari82qWPhB8FJyJu9n--51">
          <mxCell style="vsdxID=190;fillColor=#345593;gradientColor=none;shape=stencil(nZBLDoAgDERP0z3SIyDew0QUooJB/N1eSGM0LFywm2lf23QAxarbRQFna/BuVIfpggasgXNjtfImRAUoAUXvvBq822xHfmkTmdTs9rThpDmWJji7yFWMfEPoZOwHfZpF8A9aCGbno3h/jCYPIJYoPJQ3);strokeColor=#233862;strokeWidth=2;points=[];labelBackgroundColor=none;rounded=1;html=1;whiteSpace=wrap;" vertex="1" parent="1">
            <mxGeometry x="38" y="753" width="345" height="400" as="geometry" />
          </mxCell>
        </UserObject>
        <UserObject label="" tags="Background" id="Cari82qWPhB8FJyJu9n--55">
          <mxCell style="vsdxID=248;fillColor=#345593;gradientColor=none;shape=stencil(nZBLDoAgDERP0z3SIyDew0QUooJB/N1eSGM0LFywm2lf23QAxarbRQFna/BuVIfpggasgXNjtfImRAUoAUXvvBq822xHfmkTmdTs9rThpDmWJji7yFWMfEPoZOwHfZpF8A9aCGbno3h/jCYPIJYoPJQ3);strokeColor=#233862;strokeWidth=2;points=[];labelBackgroundColor=none;rounded=1;html=1;whiteSpace=wrap;" vertex="1" parent="1">
            <mxGeometry x="410" y="541" width="345" height="400" as="geometry" />
          </mxCell>
        </UserObject>
        <UserObject label="" tags="Background" id="Cari82qWPhB8FJyJu9n--59">
          <mxCell style="vsdxID=289;fillColor=#345593;gradientColor=none;shape=stencil(nZBLDoAgDERP0z3SIyDew0QUooJB/N1eSGM0LFywm2lf23QAxarbRQFna/BuVIfpggasgXNjtfImRAUoAUXvvBq822xHfmkTmdTs9rThpDmWJji7yFWMfEPoZOwHfZpF8A9aCGbno3h/jCYPIJYoPJQ3);strokeColor=#233862;strokeWidth=2;points=[];labelBackgroundColor=none;rounded=1;html=1;whiteSpace=wrap;" vertex="1" parent="1">
            <mxGeometry x="45" y="1332" width="345" height="749" as="geometry" />
          </mxCell>
        </UserObject>
        <UserObject label="" tags="Background" id="Cari82qWPhB8FJyJu9n--60">
          <mxCell style="vsdxID=290;fillColor=none;gradientColor=none;strokeColor=none;points=[];labelBackgroundColor=none;rounded=1;html=1;whiteSpace=wrap;" vertex="1" parent="1">
            <mxGeometry x="43" y="1341" width="351" height="749" as="geometry" />
          </mxCell>
        </UserObject>
        <mxCell id="Cari82qWPhB8FJyJu9n--38" style="vsdxID=287;fillColor=#3d64ac;gradientColor=none;fillOpacity=0;shape=stencil(nZBLDoAgDERP0z3SIyjew0SURgSD+Lu9kMZoXLhwN9O+tukAlrNpJg1SzDH4QW/URgNYgZTkjA4UkwJUgGXng+6DX1zLfmoymdXo17xh5zmRJ6Q42BWCfc2oJfdAr+Yv+AP9Cb7OJ3H/2JG1HNGz/84klThPVCc=);strokeColor=#233862;strokeWidth=2;points=[];labelBackgroundColor=none;rounded=1;html=1;whiteSpace=wrap;" vertex="1" parent="Cari82qWPhB8FJyJu9n--60">
          <mxGeometry x="29.930000000000007" y="-61" width="319" height="800" as="geometry" />
        </mxCell>
        <UserObject label="" tags="Background" id="Cari82qWPhB8FJyJu9n--37">
          <mxCell style="vsdxID=286;fillColor=none;gradientColor=none;strokeColor=none;strokeWidth=2;points=[];labelBackgroundColor=none;rounded=1;html=1;whiteSpace=wrap;" vertex="1" parent="Cari82qWPhB8FJyJu9n--60">
            <mxGeometry x="30" y="-61" width="319" height="800" as="geometry" />
          </mxCell>
        </UserObject>
        <mxCell id="Cari82qWPhB8FJyJu9n--220" value="&lt;div style=&quot;font-size: 1px&quot;&gt;&lt;p style=&quot;margin: 0px; text-indent: 0px; vertical-align: middle; direction: ltr;&quot;&gt;&lt;font style=&quot;font-size: 14.82px; font-family: &amp;quot;JetBrains Mono&amp;quot;; direction: ltr; letter-spacing: 0px; line-height: 120%; opacity: 1;&quot;&gt;DIO_portWrite&lt;/font&gt;&lt;/p&gt;&lt;/div&gt;" style="verticalAlign=middle;align=center;overflow=width;vsdxID=20;fillColor=#3d64ac;gradientColor=none;shape=stencil(nZBLDoAgDERP0z3SIyjew0SURgSD+Lu9kMZoXLhwN9O+tukAlrNpJg1SzDH4QW/URgNYgZTkjA4UkwJUgGXng+6DX1zLfmoymdXo17xh5zmRJ6Q42BWCfc2oJfdAr+Yv+AP9Cb7OJ3H/2JG1HNGz/84klThPVCc=);strokeColor=#233862;strokeWidth=2;points=[];labelBackgroundColor=none;rounded=1;html=1;whiteSpace=wrap;spacing=2;spacingTop=0;fontColor=#ffffff;" vertex="1" parent="Cari82qWPhB8FJyJu9n--37">
          <mxGeometry width="319" height="29.92" as="geometry" />
        </mxCell>
        <UserObject label="" tags="Background" id="Cari82qWPhB8FJyJu9n--63">
          <mxCell style="vsdxID=346;fillColor=#345593;gradientColor=none;shape=stencil(nZBLDoAgDERP0z3SIyDew0QUooJB/N1eSGM0LFywm2lf23QAxarbRQFna/BuVIfpggasgXNjtfImRAUoAUXvvBq822xHfmkTmdTs9rThpDmWJji7yFWMfEPoZOwHfZpF8A9aCGbno3h/jCYPIJYoPJQ3);strokeColor=#233862;strokeWidth=2;points=[];labelBackgroundColor=none;rounded=1;html=1;whiteSpace=wrap;" vertex="1" parent="1">
            <mxGeometry x="424" y="1289" width="345" height="749" as="geometry" />
          </mxCell>
        </UserObject>
        <UserObject label="&lt;div style=&quot;font-size: 1px&quot;&gt;&lt;/div&gt;" Function="EN_DIO_Error_T DIO_init(uint8_t pinNumber, EN_DIO_PORT_T portNumber, EN_DIO_DIRECTION_T direction);" tags="Flowchart" id="Cari82qWPhB8FJyJu9n--67">
          <mxCell style="verticalAlign=middle;align=center;overflow=width;vsdxID=227;shape=stencil(UzV2Ls5ILEhVNTIoLinKz04tz0wpyVA1dlE1MsrMy0gtyiwBslSNXVWNndPyi1LTi/JL81Ig/IJEkEoQKze/DGRCBUSfAUiHkUElhGdoAOG7QZTmZOYhKYVJkqUYn1ILPUMLYhWjmmqmZ2hIrFo05wIZiDBJy8zJgQQpsjx6GAKFIOFv7AoA);spacingTop=-1;spacingBottom=-1;spacingLeft=-1;spacingRight=-1;points=[[1,0.5,0],[0.5,0.5,0],[0.5,0,0]];labelBackgroundColor=none;rounded=1;html=1;whiteSpace=wrap;" vertex="1" parent="1">
            <mxGeometry x="30" y="117" width="139" height="203" as="geometry" />
          </mxCell>
        </UserObject>
        <UserObject label="&lt;div style=&quot;font-size: 1px&quot;&gt;&lt;font style=&quot;font-size:11.29px;font-family:Calibri;color:#feffff;direction:ltr;letter-spacing:0px;line-height:120%;opacity:1&quot;&gt;Start&lt;br/&gt;&lt;/font&gt;&lt;/div&gt;" Function="EN_DIO_Error_T DIO_init(uint8_t pinNumber, EN_DIO_PORT_T portNumber, EN_DIO_DIRECTION_T direction);" tags="Flowchart" id="Cari82qWPhB8FJyJu9n--68">
          <mxCell style="verticalAlign=middle;align=center;overflow=width;vsdxID=30;fillColor=#70ad47;gradientColor=none;shape=stencil(tVLREoIgEPwaHnEQxsl3s/9gEpSJwDko7e+DsEkze2l627vdu5uFRaxyHe8FosR5sCcxqMZ3iO0Rpcp0ApQPCLEasUpaEC3Yi2lS3fOojOhsr3HDmObyMtsVcYqS29Qh5FEfklwrM5OXeUa/yjkcAwfr7TDpiyTfXvjkMR+Vw2A998qaBac5tAKHU1hq3i4oNwjRr9ofvayt/+Rk+yX/4iWA159KpXWKxJx/z0Bopfyw+g4=);strokeColor=#c8c8c8;spacingTop=-1;spacingBottom=-1;spacingLeft=-1;spacingRight=-1;points=[[0.5,1,0],[0.5,0,0],[0,0.5,0],[1,0.5,0]];labelBackgroundColor=none;rounded=1;html=1;whiteSpace=wrap;" vertex="1" parent="1">
            <mxGeometry x="45" y="70" width="101" height="38" as="geometry" />
          </mxCell>
        </UserObject>
        <UserObject label="" Function="EN_DIO_Error_T DIO_init(uint8_t pinNumber, EN_DIO_PORT_T portNumber, EN_DIO_DIRECTION_T direction);" tags="Flowchart" id="Cari82qWPhB8FJyJu9n--69">
          <mxCell style="vsdxID=210;fillColor=#759fcc;gradientColor=none;shape=stencil(UzV2Ls5ILEhVNTIoLinKz04tz0wpyVA1dlE1MsrMy0gtyiwBslSNXVWNndPyi1LTi/JL81Ig/IJEkEoQKze/DGRCBUSfAUiHkUElhGcK4bpBVOZk5iGpNEVVikeloQHZpsK0YlWLz1QgA+HFtMycHEgIIcujBwlQCBKcxq4A);strokeColor=#c8c8c8;spacingTop=-1;spacingBottom=-1;spacingLeft=-1;spacingRight=-1;points=[[1,0.5,0],[0.5,0,0],[0.5,0,0]];labelBackgroundColor=none;rounded=1;html=1;whiteSpace=wrap;" vertex="1" parent="1">
            <mxGeometry x="43" y="140" width="107" height="66" as="geometry" />
          </mxCell>
        </UserObject>
        <mxCell id="Cari82qWPhB8FJyJu9n--70" value="&lt;div style=&quot;font-size: 1px&quot;&gt;&lt;p style=&quot;text-align:center;margin-left:0;margin-right:0;margin-top:0px;margin-bottom:0px;text-indent:0;vertical-align:middle;direction:ltr;&quot;&gt;&lt;font style=&quot;font-size:11.29px;font-family:Calibri;color:#feffff;direction:ltr;letter-spacing:0px;line-height:120%;opacity:1&quot;&gt;pinNumber&lt;br&gt;is in range&lt;br&gt;0 .. 7&lt;br&gt;&lt;/font&gt;&lt;/p&gt;&lt;/div&gt;" style="text;vsdxID=210;fillColor=none;gradientColor=none;strokeColor=none;spacingTop=-1;spacingBottom=-1;spacingLeft=-1;spacingRight=-1;points=[[1,0.5,0],[0.5,0,0],[0.5,0,0]];labelBackgroundColor=none;rounded=1;html=1;whiteSpace=wrap;verticalAlign=middle;align=center;overflow=width;;html=1;" vertex="1" parent="Cari82qWPhB8FJyJu9n--69">
          <mxGeometry x="8.93" y="7.66" width="89.27" height="50.01" as="geometry" />
        </mxCell>
        <UserObject label="&lt;div style=&quot;font-size: 1px&quot;&gt;&lt;font style=&quot;font-size:11.29px;font-family:Calibri;color:#feffff;direction:ltr;letter-spacing:0px;line-height:120%;opacity:1&quot;&gt;Return DIO_ERROR&lt;br/&gt;&lt;/font&gt;&lt;/div&gt;" Function="EN_DIO_Error_T DIO_init(uint8_t pinNumber, EN_DIO_PORT_T portNumber, EN_DIO_DIRECTION_T direction);" tags="Flowchart" id="Cari82qWPhB8FJyJu9n--71">
          <mxCell style="verticalAlign=middle;align=center;overflow=width;vsdxID=55;fillColor=#b15d24;gradientColor=none;shape=stencil(tVLREoIgEPwaHnEQxsl3s/9gEpSJwDko7e+DsEkze2l627vdu5uFRaxyHe8FosR5sCcxqMZ3iO0Rpcp0ApQPCLEasUpaEC3Yi2lS3fOojOhsr3HDmObyMtsVcYqS29Qh5FEfklwrM5OXeUa/yjkcAwfr7TDpiyTfXvjkMR+Vw2A998qaBac5tAKHU1hq3i4oNwjRr9ofvayt/+Rk+yX/4iWA159KpXWKxJx/z0Bopfyw+g4=);strokeColor=#ae5a21;spacingTop=-1;spacingBottom=-1;spacingLeft=-1;spacingRight=-1;points=[[0.5,1,0],[0.5,0,0],[0,0.5,0],[1,0.5,0]];labelBackgroundColor=none;rounded=1;html=1;whiteSpace=wrap;" vertex="1" parent="1">
            <mxGeometry x="213" y="425" width="101" height="38" as="geometry" />
          </mxCell>
        </UserObject>
        <UserObject label="&lt;div style=&quot;font-size: 1px&quot;&gt;&lt;font style=&quot;font-size:11.29px;font-family:Calibri;color:#feffff;direction:ltr;letter-spacing:0px;line-height:120%;opacity:1&quot;&gt;Return LED_OK&lt;br/&gt;&lt;/font&gt;&lt;/div&gt;" Function="EN_DIO_Error_T DIO_init(uint8_t pinNumber, EN_DIO_PORT_T portNumber, EN_DIO_DIRECTION_T direction);" tags="Flowchart" id="Cari82qWPhB8FJyJu9n--72">
          <mxCell style="verticalAlign=middle;align=center;overflow=width;vsdxID=52;fillColor=#70ad47;gradientColor=none;shape=stencil(tVLREoIgEPwaHnEQxsl3s/9gEpSJwDko7e+DsEkze2l627vdu5uFRaxyHe8FosR5sCcxqMZ3iO0Rpcp0ApQPCLEasUpaEC3Yi2lS3fOojOhsr3HDmObyMtsVcYqS29Qh5FEfklwrM5OXeUa/yjkcAwfr7TDpiyTfXvjkMR+Vw2A998qaBac5tAKHU1hq3i4oNwjRr9ofvayt/+Rk+yX/4iWA159KpXWKxJx/z0Bopfyw+g4=);strokeColor=#c8c8c8;spacingTop=-1;spacingBottom=-1;spacingLeft=-1;spacingRight=-1;points=[[0.5,1,0],[0.5,0,0],[0,0.5,0],[1,0.5,0]];labelBackgroundColor=none;rounded=1;html=1;whiteSpace=wrap;" vertex="1" parent="1">
            <mxGeometry x="213" y="470" width="101" height="38" as="geometry" />
          </mxCell>
        </UserObject>
        <UserObject label="" Function="EN_DIO_Error_T DIO_init(uint8_t pinNumber, EN_DIO_PORT_T portNumber, EN_DIO_DIRECTION_T direction);" tags="Flowchart" id="Cari82qWPhB8FJyJu9n--76">
          <mxCell style="vsdxID=280;fillColor=#4672c4;gradientColor=none;shape=stencil(UzV2Ls5ILEhVNTIoLinKz04tz0wpyVA1dlE1MsrMy0gtyiwBslSNXVWNndPyi1LTi/JL81Ig/IJEkEoQKze/DGRCBUSfrqGJnoEZSJuRQSVEyNDAAMx3g6jPycxDUm9hqmdpQrxyQ0zj8akmRTFhlwMZCG+nZebkQEINWR49mIBCkCA2dgUA);strokeColor=#c8c8c8;spacingTop=-1;spacingBottom=-1;spacingLeft=-1;spacingRight=-1;points=[[0,0.5,0],[1,0.5,0],[0.5,1,0],[0.5,0,0]];labelBackgroundColor=none;rounded=1;html=1;whiteSpace=wrap;" vertex="1" parent="1">
            <mxGeometry x="45" y="462" width="101" height="38" as="geometry" />
          </mxCell>
        </UserObject>
        <mxCell id="Cari82qWPhB8FJyJu9n--77" value="&lt;div style=&quot;font-size: 1px&quot;&gt;&lt;font style=&quot;font-size:11.29px;font-family:Calibri;color:#feffff;direction:ltr;letter-spacing:0px;line-height:120%;opacity:1&quot;&gt;set bit direction&lt;/font&gt;&lt;/div&gt;" style="text;vsdxID=280;fillColor=none;gradientColor=none;strokeColor=none;spacingTop=-1;spacingBottom=-1;spacingLeft=-1;spacingRight=-1;points=[[0,0.5,0],[1,0.5,0],[0.5,1,0],[0.5,0,0]];labelBackgroundColor=none;rounded=1;html=1;whiteSpace=wrap;verticalAlign=middle;align=center;overflow=width;;html=1;" vertex="1" parent="Cari82qWPhB8FJyJu9n--76">
          <mxGeometry x="16.93" y="-0.09999999999999999" width="67.73" height="38.099999999999994" as="geometry" />
        </mxCell>
        <UserObject label="" Function="EN_DIO_Error_T DIO_init(uint8_t pinNumber, EN_DIO_PORT_T portNumber, EN_DIO_DIRECTION_T direction);" tags="Flowchart" id="Cari82qWPhB8FJyJu9n--78">
          <mxCell style="vsdxID=216;fillColor=#759fcc;gradientColor=none;shape=stencil(UzV2Ls5ILEhVNTIoLinKz04tz0wpyVA1dlE1MsrMy0gtyiwBslSNXVWNndPyi1LTi/JL81Ig/IJEkEoQKze/DGRCBUSfAUiHkUElhGcK4bpBVOZk5iGpNEVVikeloQHZpsK0YlWLz1QgA+HFtMycHEgIIcujBwlQCBKcxq4A);strokeColor=#c8c8c8;spacingTop=-1;spacingBottom=-1;spacingLeft=-1;spacingRight=-1;points=[[1,0.5,0],[0.5,0,0],[0.5,0,0]];labelBackgroundColor=none;rounded=1;html=1;whiteSpace=wrap;" vertex="1" parent="1">
            <mxGeometry x="43" y="238" width="107" height="66" as="geometry" />
          </mxCell>
        </UserObject>
        <mxCell id="Cari82qWPhB8FJyJu9n--79" value="&lt;div style=&quot;font-size: 1px&quot;&gt;&lt;p style=&quot;text-align:center;margin-left:0;margin-right:0;margin-top:0px;margin-bottom:0px;text-indent:0;vertical-align:middle;direction:ltr;&quot;&gt;&lt;font style=&quot;font-size:11.29px;font-family:Calibri;color:#feffff;direction:ltr;letter-spacing:0px;line-height:120%;opacity:1&quot;&gt;portNumber&amp;nbsp;&lt;br&gt;is in range&lt;br&gt;A .. D&lt;br&gt;&lt;/font&gt;&lt;/p&gt;&lt;/div&gt;" style="text;vsdxID=216;fillColor=none;gradientColor=none;strokeColor=none;spacingTop=-1;spacingBottom=-1;spacingLeft=-1;spacingRight=-1;points=[[1,0.5,0],[0.5,0,0],[0.5,0,0]];labelBackgroundColor=none;rounded=1;html=1;whiteSpace=wrap;verticalAlign=middle;align=center;overflow=width;;html=1;" vertex="1" parent="Cari82qWPhB8FJyJu9n--78">
          <mxGeometry x="8.93" y="7.66" width="89.27" height="50.01" as="geometry" />
        </mxCell>
        <UserObject label="" Function="EN_DIO_Error_T DIO_init(uint8_t pinNumber, EN_DIO_PORT_T portNumber, EN_DIO_DIRECTION_T direction);" tags="Flowchart" id="Cari82qWPhB8FJyJu9n--80">
          <mxCell style="vsdxID=219;fillColor=#fec000;gradientColor=none;shape=stencil(UzV2Ls5ILEhVNTIoLinKz04tz0wpyVA1dlE1MsrMy0gtyiwBslSNXVWNndPyi1LTi/JL81Ig/IJEkEoQKze/DGRCBUSfAUiHkUElhGcK4bpBVOZk5iGpNEVVikeloQHZpsK0YlWLz1QgA+HFtMycHEgIIcujBwlQCBKcxq4A);strokeColor=#c8c8c8;spacingTop=-1;spacingBottom=-1;spacingLeft=-1;spacingRight=-1;points=[[0,0.5,0],[1,0.5,0],[0.5,0,0],[0.5,1,0]];labelBackgroundColor=none;rounded=1;html=1;whiteSpace=wrap;" vertex="1" parent="1">
            <mxGeometry x="45" y="333" width="101" height="76" as="geometry" />
          </mxCell>
        </UserObject>
        <mxCell id="Cari82qWPhB8FJyJu9n--81" value="&lt;div style=&quot;font-size: 1px&quot;&gt;&lt;font style=&quot;font-size:11.29px;font-family:Calibri;color:#feffff;direction:ltr;letter-spacing:0px;line-height:120%;opacity:1&quot;&gt;Direction is&lt;br&gt;IN or OUT&lt;br&gt;&lt;/font&gt;&lt;/div&gt;" style="text;vsdxID=219;fillColor=none;gradientColor=none;strokeColor=none;spacingTop=-1;spacingBottom=-1;spacingLeft=-1;spacingRight=-1;points=[[0,0.5,0],[1,0.5,0],[0.5,0,0],[0.5,1,0]];labelBackgroundColor=none;rounded=1;html=1;whiteSpace=wrap;verticalAlign=middle;align=center;overflow=width;;html=1;" vertex="1" parent="Cari82qWPhB8FJyJu9n--80">
          <mxGeometry x="8.47" y="9.33" width="84.67" height="57.15" as="geometry" />
        </mxCell>
        <UserObject label="" tags="Background" id="Cari82qWPhB8FJyJu9n--82">
          <mxCell style="vsdxID=230;edgeStyle=none;dashed=1;dashPattern=4.00 2.00;startArrow=none;endArrow=none;startSize=5;endSize=5;strokeColor=#fec000;spacingTop=-1;spacingBottom=-1;spacingLeft=-1;spacingRight=-1;verticalAlign=middle;html=1;labelBackgroundColor=#ffffff;rounded=1;" edge="1" parent="1">
            <mxGeometry relative="1" as="geometry">
              <Array as="points" />
              <mxPoint x="153" y="117" as="sourcePoint" />
              <mxPoint x="198" y="102" as="targetPoint" />
            </mxGeometry>
          </mxCell>
        </UserObject>
        <UserObject label="&lt;div style=&quot;font-size: 1px&quot;&gt;&lt;font style=&quot;font-size:11.29px;font-family:Calibri;color:#4672c4;direction:ltr;letter-spacing:0px;line-height:120%;opacity:1&quot;&gt;Recurring check(1)&lt;br&gt;&lt;/font&gt;&lt;/div&gt;" tags="Background" id="Cari82qWPhB8FJyJu9n--83">
          <mxCell style="verticalAlign=middle;align=center;overflow=width;vsdxID=232;fillColor=none;gradientColor=none;shape=stencil(nZBLDoAgDERP0z3SIyjew0SURgSD+Lu9kMZoXLhwN9O+tukAlrNpJg1SzDH4QW/URgNYgZTkjA4UkwJUgGXng+6DX1zLfmoymdXo17xh5zmRJ6Q42BWCfc2oJfdAr+Yv+AP9Cb7OJ3H/2JG1HNGz/84klThPVCc=);strokeColor=none;spacingTop=-1;spacingBottom=-1;spacingLeft=-1;spacingRight=-1;points=[];labelBackgroundColor=none;rounded=1;html=1;whiteSpace=wrap;fontStyle=1" vertex="1" parent="1">
            <mxGeometry x="172" y="89" width="88" height="19" as="geometry" />
          </mxCell>
        </UserObject>
        <UserObject label="&lt;div style=&quot;font-size: 1px&quot;&gt;&lt;font style=&quot;font-size:11.29px;font-family:Calibri;color:#feffff;direction:ltr;letter-spacing:0px;line-height:120%;opacity:1&quot;&gt;Start&lt;br/&gt;&lt;/font&gt;&lt;/div&gt;" Function="EN_DIO_Error_T DIO_toggle(uint8_t pinNumber, EN_DIO_PORT_T portNumber);  " tags="Flowchart" id="Cari82qWPhB8FJyJu9n--87">
          <mxCell style="verticalAlign=middle;align=center;overflow=width;vsdxID=252;fillColor=#70ad47;gradientColor=none;shape=stencil(tVLREoIgEPwaHnEQxsl3s/9gEpSJwDko7e+DsEkze2l627vdu5uFRaxyHe8FosR5sCcxqMZ3iO0Rpcp0ApQPCLEasUpaEC3Yi2lS3fOojOhsr3HDmObyMtsVcYqS29Qh5FEfklwrM5OXeUa/yjkcAwfr7TDpiyTfXvjkMR+Vw2A998qaBac5tAKHU1hq3i4oNwjRr9ofvayt/+Rk+yX/4iWA159KpXWKxJx/z0Bopfyw+g4=);strokeColor=#c8c8c8;spacingTop=-1;spacingBottom=-1;spacingLeft=-1;spacingRight=-1;points=[[0.5,1,0],[0.5,0,0],[0,0.5,0],[1,0.5,0]];labelBackgroundColor=none;rounded=1;html=1;whiteSpace=wrap;" vertex="1" parent="1">
            <mxGeometry x="493" y="566" width="101" height="38" as="geometry" />
          </mxCell>
        </UserObject>
        <UserObject label="&lt;div style=&quot;font-size: 1px&quot;&gt;&lt;font style=&quot;font-size:14.11px;font-family:Calibri;color:#ffffff;direction:ltr;letter-spacing:0px;line-height:120%;opacity:1&quot;&gt;&lt;b&gt;DIO_read&lt;/b&gt;&lt;/font&gt;&lt;font style=&quot;font-size:14.11px;font-family:Themed;color:#ffffff;direction:ltr;letter-spacing:0px;line-height:120%;opacity:1&quot;&gt;&lt;br&gt;&lt;/font&gt;&lt;/div&gt;" Function="EN_DIO_Error_T DIO_toggle(uint8_t pinNumber, EN_DIO_PORT_T portNumber);  " tags="Flowchart" id="Cari82qWPhB8FJyJu9n--88">
          <mxCell style="verticalAlign=middle;align=center;overflow=width;vsdxID=271;fillColor=#759fcc;gradientColor=none;shape=stencil(nZLdDsIgDIWfprcLUGO4n/M9lowJEWFh+Pf2Qhp/xjKjuzuHfi05BcB61O2gQLAxBn9UV9NFDbgDIYzTKpiYFGADWPc+qEPwZ9eRH9pMZnXylzzhRn0sdwh2J8cZ+T2h1rgP9FlcBX9BV4LF9Um8M/bGWlrRq760AM4ruf0j1wyfwNPZUlZ88/vsOb6csEiXRPni6Yh+CzYP);strokeColor=#c8c8c8;spacingTop=-1;spacingBottom=-1;spacingLeft=-1;spacingRight=-1;points=[[1,0.5,0],[0.5,0.5,0],[0.5,0,0]];labelBackgroundColor=none;rounded=1;html=1;whiteSpace=wrap;" vertex="1" parent="1">
            <mxGeometry x="493" y="643" width="107" height="33" as="geometry" />
          </mxCell>
        </UserObject>
        <UserObject label="&lt;div style=&quot;font-size: 1px&quot;&gt;&lt;font style=&quot;font-size:11.29px;font-family:Calibri;color:#feffff;direction:ltr;letter-spacing:0px;line-height:120%;opacity:1&quot;&gt;Return LED_ERROR&lt;br/&gt;&lt;/font&gt;&lt;/div&gt;" Function="EN_DIO_Error_T DIO_toggle(uint8_t pinNumber, EN_DIO_PORT_T portNumber);  " tags="Flowchart" id="Cari82qWPhB8FJyJu9n--89">
          <mxCell style="verticalAlign=middle;align=center;overflow=width;vsdxID=259;fillColor=#b15d24;gradientColor=none;shape=stencil(tVLREoIgEPwaHnEQxsl3s/9gEpSJwDko7e+DsEkze2l627vdu5uFRaxyHe8FosR5sCcxqMZ3iO0Rpcp0ApQPCLEasUpaEC3Yi2lS3fOojOhsr3HDmObyMtsVcYqS29Qh5FEfklwrM5OXeUa/yjkcAwfr7TDpiyTfXvjkMR+Vw2A998qaBac5tAKHU1hq3i4oNwjRr9ofvayt/+Rk+yX/4iWA159KpXWKxJx/z0Bopfyw+g4=);strokeColor=#ae5a21;spacingTop=-1;spacingBottom=-1;spacingLeft=-1;spacingRight=-1;points=[[0.5,1,0],[0.5,0,0],[0,0.5,0],[1,0.5,0]];labelBackgroundColor=none;rounded=1;html=1;whiteSpace=wrap;" vertex="1" parent="1">
            <mxGeometry x="627" y="858" width="101" height="38" as="geometry" />
          </mxCell>
        </UserObject>
        <UserObject label="&lt;div style=&quot;font-size: 1px&quot;&gt;&lt;font style=&quot;font-size:11.29px;font-family:Calibri;color:#feffff;direction:ltr;letter-spacing:0px;line-height:120%;opacity:1&quot;&gt;Return LED_OK&lt;br/&gt;&lt;/font&gt;&lt;/div&gt;" Function="EN_DIO_Error_T DIO_toggle(uint8_t pinNumber, EN_DIO_PORT_T portNumber);  " tags="Flowchart" id="Cari82qWPhB8FJyJu9n--90">
          <mxCell style="verticalAlign=middle;align=center;overflow=width;vsdxID=260;fillColor=#70ad47;gradientColor=none;shape=stencil(tVLREoIgEPwaHnEQxsl3s/9gEpSJwDko7e+DsEkze2l627vdu5uFRaxyHe8FosR5sCcxqMZ3iO0Rpcp0ApQPCLEasUpaEC3Yi2lS3fOojOhsr3HDmObyMtsVcYqS29Qh5FEfklwrM5OXeUa/yjkcAwfr7TDpiyTfXvjkMR+Vw2A998qaBac5tAKHU1hq3i4oNwjRr9ofvayt/+Rk+yX/4iWA159KpXWKxJx/z0Bopfyw+g4=);strokeColor=#c8c8c8;spacingTop=-1;spacingBottom=-1;spacingLeft=-1;spacingRight=-1;points=[[0.5,1,0],[0.5,0,0],[0,0.5,0],[1,0.5,0]];labelBackgroundColor=none;rounded=1;html=1;whiteSpace=wrap;" vertex="1" parent="1">
            <mxGeometry x="493" y="858" width="101" height="38" as="geometry" />
          </mxCell>
        </UserObject>
        <UserObject label="&lt;div style=&quot;font-size: 1px&quot;&gt;&lt;font style=&quot;font-size:11.29px;font-family:Calibri;color:#feffff;direction:ltr;letter-spacing:0px;line-height:120%;opacity:1&quot;&gt;Start&lt;br/&gt;&lt;/font&gt;&lt;/div&gt;" Function="EN_DIO_Error_T DIO_read(uint8_t pinNumber, EN_DIO_PORT_T portNumber, uint8_t *value);" tags="Flowchart" id="Cari82qWPhB8FJyJu9n--91">
          <mxCell style="verticalAlign=middle;align=center;overflow=width;vsdxID=262;fillColor=#70ad47;gradientColor=none;shape=stencil(tVLREoIgEPwaHnEQxsl3s/9gEpSJwDko7e+DsEkze2l627vdu5uFRaxyHe8FosR5sCcxqMZ3iO0Rpcp0ApQPCLEasUpaEC3Yi2lS3fOojOhsr3HDmObyMtsVcYqS29Qh5FEfklwrM5OXeUa/yjkcAwfr7TDpiyTfXvjkMR+Vw2A998qaBac5tAKHU1hq3i4oNwjRr9ofvayt/+Rk+yX/4iWA159KpXWKxJx/z0Bopfyw+g4=);strokeColor=#c8c8c8;spacingTop=-1;spacingBottom=-1;spacingLeft=-1;spacingRight=-1;points=[[0.5,1,0],[0.5,0,0],[0,0.5,0],[1,0.5,0]];labelBackgroundColor=none;rounded=1;html=1;whiteSpace=wrap;" vertex="1" parent="1">
            <mxGeometry x="62" y="620" width="101" height="38" as="geometry" />
          </mxCell>
        </UserObject>
        <UserObject label="&lt;div style=&quot;font-size: 1px&quot;&gt;&lt;font style=&quot;font-size:11.29px;font-family:Calibri;color:#feffff;direction:ltr;letter-spacing:0px;line-height:120%;opacity:1&quot;&gt;Return LED_ERROR&lt;br/&gt;&lt;/font&gt;&lt;/div&gt;" Function="EN_DIO_Error_T DIO_read(uint8_t pinNumber, EN_DIO_PORT_T portNumber, uint8_t *value);" tags="Flowchart" id="Cari82qWPhB8FJyJu9n--92">
          <mxCell style="verticalAlign=middle;align=center;overflow=width;vsdxID=263;fillColor=#b15d24;gradientColor=none;shape=stencil(tVLREoIgEPwaHnEQxsl3s/9gEpSJwDko7e+DsEkze2l627vdu5uFRaxyHe8FosR5sCcxqMZ3iO0Rpcp0ApQPCLEasUpaEC3Yi2lS3fOojOhsr3HDmObyMtsVcYqS29Qh5FEfklwrM5OXeUa/yjkcAwfr7TDpiyTfXvjkMR+Vw2A998qaBac5tAKHU1hq3i4oNwjRr9ofvayt/+Rk+yX/4iWA159KpXWKxJx/z0Bopfyw+g4=);strokeColor=#ae5a21;spacingTop=-1;spacingBottom=-1;spacingLeft=-1;spacingRight=-1;points=[[0.5,1,0],[0.5,0,0],[0,0.5,0],[1,0.5,0]];labelBackgroundColor=none;rounded=1;html=1;whiteSpace=wrap;" vertex="1" parent="1">
            <mxGeometry x="196" y="831" width="101" height="38" as="geometry" />
          </mxCell>
        </UserObject>
        <UserObject label="&lt;div style=&quot;font-size: 1px&quot;&gt;&lt;font style=&quot;font-size:11.29px;font-family:Calibri;color:#feffff;direction:ltr;letter-spacing:0px;line-height:120%;opacity:1&quot;&gt;Return LED_OK&lt;br/&gt;&lt;/font&gt;&lt;/div&gt;" Function="EN_DIO_Error_T DIO_read(uint8_t pinNumber, EN_DIO_PORT_T portNumber, uint8_t *value);" tags="Flowchart" id="Cari82qWPhB8FJyJu9n--93">
          <mxCell style="verticalAlign=middle;align=center;overflow=width;vsdxID=264;fillColor=#70ad47;gradientColor=none;shape=stencil(tVLREoIgEPwaHnEQxsl3s/9gEpSJwDko7e+DsEkze2l627vdu5uFRaxyHe8FosR5sCcxqMZ3iO0Rpcp0ApQPCLEasUpaEC3Yi2lS3fOojOhsr3HDmObyMtsVcYqS29Qh5FEfklwrM5OXeUa/yjkcAwfr7TDpiyTfXvjkMR+Vw2A998qaBac5tAKHU1hq3i4oNwjRr9ofvayt/+Rk+yX/4iWA159KpXWKxJx/z0Bopfyw+g4=);strokeColor=#c8c8c8;spacingTop=-1;spacingBottom=-1;spacingLeft=-1;spacingRight=-1;points=[[0.5,1,0],[0.5,0,0],[0,0.5,0],[1,0.5,0]];labelBackgroundColor=none;rounded=1;html=1;whiteSpace=wrap;" vertex="1" parent="1">
            <mxGeometry x="62" y="831" width="101" height="38" as="geometry" />
          </mxCell>
        </UserObject>
        <UserObject label="&lt;div style=&quot;font-size: 1px&quot;&gt;&lt;font style=&quot;font-size:11.29px;font-family:Calibri;color:#e0a900;direction:ltr;letter-spacing:0px;line-height:120%;opacity:1&quot;&gt;Check (1)&lt;br/&gt;&lt;/font&gt;&lt;/div&gt;" Function="EN_DIO_Error_T DIO_read(uint8_t pinNumber, EN_DIO_PORT_T portNumber, uint8_t *value);" tags="Flowchart" id="Cari82qWPhB8FJyJu9n--94">
          <mxCell style="verticalAlign=middle;align=center;overflow=width;vsdxID=265;shape=stencil(nZLRDsIgDEW/pq+GlRh9n/M/loyNRoSFodO/F9JMHWYm29u99LTkFkCWg657BSiG4N1FjdQEDfIEiGS18hSiAlmBLFvnVefdzTbs+zqRSV3dPU14cJ9IHSie7ArB/syoIfuFTsVN8B90I5hdH8UnY0vG8Ire9aUFFLjbr4iV0zN2Pvl4WDP5h15OlyWLIn/teMQ/RVYv);spacingTop=-1;spacingBottom=-1;spacingLeft=-1;spacingRight=-1;points=[[0,0.5,0],[1,0.5,0],[0.5,1,0],[0.5,0,0]];labelBackgroundColor=none;rounded=1;html=1;whiteSpace=wrap;" vertex="1" parent="1">
            <mxGeometry x="62" y="690" width="101" height="38" as="geometry" />
          </mxCell>
        </UserObject>
        <UserObject label="" Function="EN_DIO_Error_T DIO_read(uint8_t pinNumber, EN_DIO_PORT_T portNumber, uint8_t *value);" tags="Flowchart" id="Cari82qWPhB8FJyJu9n--95">
          <mxCell style="vsdxID=279;shape=stencil(UzV2Ls5ILEhVNTIoLinKz04tz0wpyVA1dlE1MsrMy0gtyiwBslSNXVWNndPyi1LTi/JL81Ig/IJEkEoQKze/DGRCBUSfrqGFnrkpSJuRQSVEyNDAAMx3g6jPycxDUm9hqGdEgnJDTOPxqSZFMWGXAxkIb6dl5uRAQg1ZHj2YgEKQIDZ2BQA=);spacingTop=-1;spacingBottom=-1;spacingLeft=-1;spacingRight=-1;points=[[0,0.5,0],[1,0.5,0],[0.5,1,0],[0.5,0,0]];labelBackgroundColor=none;rounded=1;html=1;whiteSpace=wrap;fillColor=#4672c4;strokeColor=#001DBC;fontColor=#ffffff;" vertex="1" parent="1">
            <mxGeometry x="68" y="760" width="88" height="40" as="geometry" />
          </mxCell>
        </UserObject>
        <mxCell id="Cari82qWPhB8FJyJu9n--96" value="&lt;div style=&quot;font-size: 1px&quot;&gt;&lt;font style=&quot;font-size: 11.29px; font-family: Calibri; direction: ltr; letter-spacing: 0px; line-height: 120%; opacity: 1;&quot;&gt;Read bit value&lt;br&gt;&lt;/font&gt;&lt;/div&gt;" style="text;vsdxID=279;fillColor=none;gradientColor=none;strokeColor=none;spacingTop=-1;spacingBottom=-1;spacingLeft=-1;spacingRight=-1;points=[[0,0.5,0],[1,0.5,0],[0.5,1,0],[0.5,0,0]];labelBackgroundColor=none;rounded=1;html=1;whiteSpace=wrap;verticalAlign=middle;align=center;overflow=width;;html=1;fontColor=#FFFFFF;" vertex="1" parent="Cari82qWPhB8FJyJu9n--95">
          <mxGeometry x="14.75089108910891" y="-0.10526315789473684" width="59.01227722772278" height="40.10526315789473" as="geometry" />
        </mxCell>
        <UserObject label="&lt;div style=&quot;font-size: 1px&quot;&gt;&lt;font style=&quot;font-size:14.11px;font-family:Calibri;color:#ffffff;direction:ltr;letter-spacing:0px;line-height:120%;opacity:1&quot;&gt;&lt;b&gt;DIO_write&lt;/b&gt;&lt;/font&gt;&lt;br&gt;&lt;/div&gt;" Function="EN_DIO_Error_T DIO_toggle(uint8_t pinNumber, EN_DIO_PORT_T portNumber);  " tags="Flowchart" id="Cari82qWPhB8FJyJu9n--97">
          <mxCell style="verticalAlign=middle;align=center;overflow=width;vsdxID=272;fillColor=#759fcc;gradientColor=none;shape=stencil(nZLdDsIgDIWfprcLUGO4n/M9lowJEWFh+Pf2Qhp/xjKjuzuHfi05BcB61O2gQLAxBn9UV9NFDbgDIYzTKpiYFGADWPc+qEPwZ9eRH9pMZnXylzzhRn0sdwh2J8cZ+T2h1rgP9FlcBX9BV4LF9Um8M/bGWlrRq760AM4ruf0j1wyfwNPZUlZ88/vsOb6csEiXRPni6Yh+CzYP);strokeColor=#c8c8c8;spacingTop=-1;spacingBottom=-1;spacingLeft=-1;spacingRight=-1;points=[[1,0.5,0],[0.5,0.5,0],[0.5,0,0]];labelBackgroundColor=none;rounded=1;html=1;whiteSpace=wrap;" vertex="1" parent="1">
            <mxGeometry x="493" y="786" width="107" height="33" as="geometry" />
          </mxCell>
        </UserObject>
        <UserObject label="&lt;div style=&quot;font-size: 1px&quot;&gt;&lt;font style=&quot;font-size:11.29px;font-family:Calibri;color:#feffff;direction:ltr;letter-spacing:0px;line-height:120%;opacity:1&quot;&gt;Flip read value&lt;br/&gt;&lt;/font&gt;&lt;/div&gt;" Function="EN_DIO_Error_T DIO_toggle(uint8_t pinNumber, EN_DIO_PORT_T portNumber);  " tags="Flowchart" id="Cari82qWPhB8FJyJu9n--98">
          <mxCell style="verticalAlign=middle;align=center;overflow=width;vsdxID=274;fillColor=#4672c4;gradientColor=none;shape=stencil(nZBLDoAgDERP0z3SIyjew0SURgSD+Lu9kMZoXLhwN9O+tukAlrNpJg1SzDH4QW/URgNYgZTkjA4UkwJUgGXng+6DX1zLfmoymdXo17xh5zmRJ6Q42BWCfc2oJfdAr+Yv+AP9Cb7OJ3H/2JG1HNGz/84klThPVCc=);strokeColor=#c8c8c8;spacingTop=-1;spacingBottom=-1;spacingLeft=-1;spacingRight=-1;points=[[0,0.5,0],[1,0.5,0],[0.5,1,0],[0.5,0,0]];labelBackgroundColor=none;rounded=1;html=1;whiteSpace=wrap;" vertex="1" parent="1">
            <mxGeometry x="493" y="714" width="101" height="33" as="geometry" />
          </mxCell>
        </UserObject>
        <UserObject label="&lt;div style=&quot;font-size: 1px&quot;&gt;&lt;font style=&quot;font-size:11.29px;font-family:Calibri;color:#feffff;direction:ltr;letter-spacing:0px;line-height:120%;opacity:1&quot;&gt;Start&lt;br/&gt;&lt;/font&gt;&lt;/div&gt;" Function="EN_DIO_Error_T DIO_port_write(EN_DIO_PORT_T portNumber, uint8_t byte, uint8_t mask)" tags="Flowchart" id="Cari82qWPhB8FJyJu9n--99">
          <mxCell style="verticalAlign=middle;align=center;overflow=width;vsdxID=293;fillColor=#70ad47;gradientColor=none;shape=stencil(tVLREoIgEPwaHnEQxsl3s/9gEpSJwDko7e+DsEkze2l627vdu5uFRaxyHe8FosR5sCcxqMZ3iO0Rpcp0ApQPCLEasUpaEC3Yi2lS3fOojOhsr3HDmObyMtsVcYqS29Qh5FEfklwrM5OXeUa/yjkcAwfr7TDpiyTfXvjkMR+Vw2A998qaBac5tAKHU1hq3i4oNwjRr9ofvayt/+Rk+yX/4iWA159KpXWKxJx/z0Bopfyw+g4=);strokeColor=#c8c8c8;spacingTop=-1;spacingBottom=-1;spacingLeft=-1;spacingRight=-1;points=[[0.5,1,0],[0.5,0,0],[0,0.5,0],[1,0.5,0]];labelBackgroundColor=none;rounded=1;html=1;whiteSpace=wrap;" vertex="1" parent="1">
            <mxGeometry x="96" y="1345" width="101" height="38" as="geometry" />
          </mxCell>
        </UserObject>
        <UserObject label="" Function="EN_DIO_Error_T DIO_port_write(EN_DIO_PORT_T portNumber, uint8_t byte, uint8_t mask)" tags="Flowchart" id="Cari82qWPhB8FJyJu9n--100">
          <mxCell style="vsdxID=303;fillColor=#345593;gradientColor=none;shape=stencil(UzV2Ls5ILEhVNTIoLinKz04tz0wpyVA1dlE1MsrMy0gtyiwBslSNXVWNndPyi1LTi/JL81Ig/IJEkEoQKze/DGRCBUSfAUiHkUElhGcK4bpBVOZk5iGpNEVVikeloQHZpsK0YlWLz1QgA+HFtMycHEgIIcujBwlQCBKcxq4A);strokeColor=#31528f;spacingTop=-1;spacingBottom=-1;spacingLeft=-1;spacingRight=-1;points=[[1,0.5,0],[0.5,0,0],[0.5,0,0]];labelBackgroundColor=none;rounded=1;html=1;whiteSpace=wrap;" vertex="1" parent="1">
            <mxGeometry x="109" y="1399" width="74" height="56" as="geometry" />
          </mxCell>
        </UserObject>
        <mxCell id="Cari82qWPhB8FJyJu9n--101" value="&lt;div style=&quot;font-size: 1px&quot;&gt;&lt;font style=&quot;font-size:11.29px;font-family:Calibri;color:#feffff;direction:ltr;letter-spacing:0px;line-height:120%;opacity:1&quot;&gt;mask == 0&lt;br/&gt;&lt;/font&gt;&lt;/div&gt;" style="text;vsdxID=303;fillColor=none;gradientColor=none;strokeColor=none;spacingTop=-1;spacingBottom=-1;spacingLeft=-1;spacingRight=-1;points=[[1,0.5,0],[0.5,0,0],[0.5,0,0]];labelBackgroundColor=none;rounded=1;html=1;whiteSpace=wrap;verticalAlign=middle;align=center;overflow=width;;html=1;" vertex="1" parent="Cari82qWPhB8FJyJu9n--100">
          <mxGeometry x="6.25" y="6.81" width="62.47" height="42.16" as="geometry" />
        </mxCell>
        <UserObject label="&lt;div style=&quot;font-size: 1px&quot;&gt;&lt;font style=&quot;font-size:11.29px;font-family:Calibri;color:#feffff;direction:ltr;letter-spacing:0px;line-height:120%;opacity:1&quot;&gt;mask = 0xFF&lt;br/&gt;&lt;/font&gt;&lt;/div&gt;" Function="EN_DIO_Error_T DIO_port_write(EN_DIO_PORT_T portNumber, uint8_t byte, uint8_t mask)" tags="Flowchart" id="Cari82qWPhB8FJyJu9n--102">
          <mxCell style="verticalAlign=middle;align=center;overflow=width;vsdxID=304;fillColor=#4672c4;gradientColor=none;shape=stencil(nZBLDoAgDERP0z3SIyjew0SURgSD+Lu9kMZoXLhwN9O+tukAlrNpJg1SzDH4QW/URgNYgZTkjA4UkwJUgGXng+6DX1zLfmoymdXo17xh5zmRJ6Q42BWCfc2oJfdAr+Yv+AP9Cb7OJ3H/2JG1HNGz/84klThPVCc=);strokeColor=#c8c8c8;spacingTop=-1;spacingBottom=-1;spacingLeft=-1;spacingRight=-1;points=[[1,0.5,0],[0.5,0.5,0],[0.5,0,0]];labelBackgroundColor=none;rounded=1;html=1;whiteSpace=wrap;" vertex="1" parent="1">
            <mxGeometry x="235" y="1444" width="57" height="42" as="geometry" />
          </mxCell>
        </UserObject>
        <UserObject label="&lt;div style=&quot;font-size: 1px&quot;&gt;&lt;font style=&quot;font-size:11.29px;font-family:Calibri;color:#feffff;direction:ltr;letter-spacing:0px;line-height:120%;opacity:1&quot;&gt;Switch `portNumber`&lt;br/&gt;&lt;/font&gt;&lt;/div&gt;" Function="EN_DIO_Error_T DIO_port_write(EN_DIO_PORT_T portNumber, uint8_t byte, uint8_t mask)" tags="Flowchart" id="Cari82qWPhB8FJyJu9n--103">
          <mxCell style="verticalAlign=middle;align=center;overflow=width;vsdxID=309;fillColor=#4672c4;gradientColor=none;shape=stencil(nZBLDoAgDERP0z3SIyjew0SURgSD+Lu9kMZoXLhwN9O+tukAlrNpJg1SzDH4QW/URgNYgZTkjA4UkwJUgGXng+6DX1zLfmoymdXo17xh5zmRJ6Q42BWCfc2oJfdAr+Yv+AP9Cb7OJ3H/2JG1HNGz/84klThPVCc=);strokeColor=#c8c8c8;spacingTop=-1;spacingBottom=-1;spacingLeft=-1;spacingRight=-1;points=[[0,0.5,0],[1,0.5,0],[0.5,1,0],[0.5,0,0]];labelBackgroundColor=none;rounded=1;html=1;whiteSpace=wrap;" vertex="1" parent="1">
            <mxGeometry x="96" y="1535" width="101" height="38" as="geometry" />
          </mxCell>
        </UserObject>
        <UserObject label="" Function="EN_DIO_Error_T DIO_port_write(EN_DIO_PORT_T portNumber, uint8_t byte, uint8_t mask)" tags="Flowchart" id="Cari82qWPhB8FJyJu9n--104">
          <mxCell style="vsdxID=314;fillColor=#345593;gradientColor=none;shape=stencil(UzV2Ls5ILEhVNTIoLinKz04tz0wpyVA1dlE1MsrMy0gtyiwBslSNXVWNndPyi1LTi/JL81Ig/IJEkEoQKze/DGRCBUSfAUiHkUElhGcK4bpBVOZk5iGpNEVVikeloQHZpsK0YlWLz1QgA+HFtMycHEgIIcujBwlQCBKcxq4A);strokeColor=#31528f;spacingTop=-1;spacingBottom=-1;spacingLeft=-1;spacingRight=-1;points=[[1,0.5,0],[0.5,0,0],[0.5,0,0]];labelBackgroundColor=none;rounded=1;html=1;whiteSpace=wrap;" vertex="1" parent="1">
            <mxGeometry x="110" y="1593" width="73" height="55" as="geometry" />
          </mxCell>
        </UserObject>
        <mxCell id="Cari82qWPhB8FJyJu9n--105" value="&lt;div style=&quot;font-size: 1px&quot;&gt;&lt;font style=&quot;font-size:11.29px;font-family:Calibri;color:#feffff;direction:ltr;letter-spacing:0px;line-height:120%;opacity:1&quot;&gt;Case `A`&lt;br/&gt;&lt;/font&gt;&lt;/div&gt;" style="text;vsdxID=314;fillColor=none;gradientColor=none;strokeColor=none;spacingTop=-1;spacingBottom=-1;spacingLeft=-1;spacingRight=-1;points=[[1,0.5,0],[0.5,0,0],[0.5,0,0]];labelBackgroundColor=none;rounded=1;html=1;whiteSpace=wrap;verticalAlign=middle;align=center;overflow=width;;html=1;" vertex="1" parent="Cari82qWPhB8FJyJu9n--104">
          <mxGeometry x="6.14" y="6.67" width="61.37" height="41.43" as="geometry" />
        </mxCell>
        <UserObject label="" Function="EN_DIO_Error_T DIO_port_write(EN_DIO_PORT_T portNumber, uint8_t byte, uint8_t mask)" tags="Flowchart" id="Cari82qWPhB8FJyJu9n--106">
          <mxCell style="vsdxID=316;fillColor=#4672c4;gradientColor=none;shape=stencil(UzV2Ls5ILEhVNTIoLinKz04tz0wpyVA1dlE1MsrMy0gtyiwBslSNXVWNndPyi1LTi/JL81Ig/IJEkEoQKze/DGRCBUSfrqmehTFIl5FBJUTE0MAAzHeDKM/JzENSbmmiZ2hOvHJDAwzj8agmRS1BdwMZCD+nZebkQIIMWR49jIBCkPA1dgUA);strokeColor=#c8c8c8;spacingTop=-1;spacingBottom=-1;spacingLeft=-1;spacingRight=-1;points=[[1,0.5,0],[0.5,0.5,0],[0.5,0,0]];labelBackgroundColor=none;rounded=1;html=1;whiteSpace=wrap;" vertex="1" parent="1">
            <mxGeometry x="214" y="1602" width="163" height="38" as="geometry" />
          </mxCell>
        </UserObject>
        <mxCell id="Cari82qWPhB8FJyJu9n--107" value="&lt;div style=&quot;font-size: 1px&quot;&gt;&lt;p style=&quot;text-align:center;margin-left:0;margin-right:0;margin-top:0px;margin-bottom:0px;text-indent:0;vertical-align:middle;direction:ltr;&quot;&gt;&lt;font style=&quot;font-size:11.29px;font-family:Calibri;color:#feffff;direction:ltr;letter-spacing:0px;line-height:120%;opacity:1&quot;&gt;PORT_A = &lt;br/&gt;&lt;/font&gt;&lt;font style=&quot;font-size:8.47px;font-family:Themed;color:#feffff;direction:ltr;letter-spacing:0px;line-height:120%;opacity:1&quot;&gt;((NOT(&lt;/font&gt;&lt;font style=&quot;font-size:8.47px;font-family:Themed;color:#feffff;direction:ltr;letter-spacing:0px;line-height:120%;opacity:1&quot;&gt;mask&lt;/font&gt;&lt;font style=&quot;font-size:8.47px;font-family:Themed;color:#feffff;direction:ltr;letter-spacing:0px;line-height:120%;opacity:1&quot;&gt;)) AND PORT_A) OR (mask AND byte)&lt;/font&gt;&lt;font style=&quot;font-size:11.29px;font-family:Themed;color:#feffff;direction:ltr;letter-spacing:0px;line-height:120%;opacity:1&quot;&gt;&lt;br/&gt;&lt;/font&gt;&lt;/p&gt;&lt;/div&gt;" style="text;vsdxID=316;fillColor=none;gradientColor=none;strokeColor=none;spacingTop=-1;spacingBottom=-1;spacingLeft=-1;spacingRight=-1;points=[[1,0.5,0],[0.5,0.5,0],[0.5,0,0]];labelBackgroundColor=none;rounded=1;html=1;whiteSpace=wrap;verticalAlign=middle;align=center;overflow=width;;html=1;" vertex="1" parent="Cari82qWPhB8FJyJu9n--106">
          <mxGeometry x="27.25" y="-0.1" width="109.01" height="38.1" as="geometry" />
        </mxCell>
        <UserObject label="" Function="EN_DIO_Error_T DIO_port_write(EN_DIO_PORT_T portNumber, uint8_t byte, uint8_t mask)" tags="Flowchart" id="Cari82qWPhB8FJyJu9n--108">
          <mxCell style="vsdxID=320;fillColor=#345593;gradientColor=none;shape=stencil(UzV2Ls5ILEhVNTIoLinKz04tz0wpyVA1dlE1MsrMy0gtyiwBslSNXVWNndPyi1LTi/JL81Ig/IJEkEoQKze/DGRCBUSfAUiHkUElhGcK4bpBVOZk5iGpNEVVikeloQHZpsK0YlWLz1QgA+HFtMycHEgIIcujBwlQCBKcxq4A);strokeColor=#31528f;spacingTop=-1;spacingBottom=-1;spacingLeft=-1;spacingRight=-1;points=[[1,0.5,0],[0.5,0,0],[0.5,0,0]];labelBackgroundColor=none;rounded=1;html=1;whiteSpace=wrap;" vertex="1" parent="1">
            <mxGeometry x="110" y="1671" width="73" height="55" as="geometry" />
          </mxCell>
        </UserObject>
        <mxCell id="Cari82qWPhB8FJyJu9n--109" value="&lt;div style=&quot;font-size: 1px&quot;&gt;&lt;font style=&quot;font-size:11.29px;font-family:Calibri;color:#feffff;direction:ltr;letter-spacing:0px;line-height:120%;opacity:1&quot;&gt;Case `B`&lt;br/&gt;&lt;/font&gt;&lt;/div&gt;" style="text;vsdxID=320;fillColor=none;gradientColor=none;strokeColor=none;spacingTop=-1;spacingBottom=-1;spacingLeft=-1;spacingRight=-1;points=[[1,0.5,0],[0.5,0,0],[0.5,0,0]];labelBackgroundColor=none;rounded=1;html=1;whiteSpace=wrap;verticalAlign=middle;align=center;overflow=width;;html=1;" vertex="1" parent="Cari82qWPhB8FJyJu9n--108">
          <mxGeometry x="6.14" y="6.67" width="61.37" height="41.43" as="geometry" />
        </mxCell>
        <UserObject label="" Function="EN_DIO_Error_T DIO_port_write(EN_DIO_PORT_T portNumber, uint8_t byte, uint8_t mask)" tags="Flowchart" id="Cari82qWPhB8FJyJu9n--110">
          <mxCell style="vsdxID=321;fillColor=#4672c4;gradientColor=none;shape=stencil(UzV2Ls5ILEhVNTIoLinKz04tz0wpyVA1dlE1MsrMy0gtyiwBslSNXVWNndPyi1LTi/JL81Ig/IJEkEoQKze/DGRCBUSfrqmehTFIl5FBJUTE0MAAzHeDKM/JzENSbmmiZ2hOvHJDAwzj8agmRS1BdwMZCD+nZebkQIIMWR49jIBCkPA1dgUA);strokeColor=#c8c8c8;spacingTop=-1;spacingBottom=-1;spacingLeft=-1;spacingRight=-1;points=[[1,0.5,0],[0.5,0.5,0],[0.5,0,0]];labelBackgroundColor=none;rounded=1;html=1;whiteSpace=wrap;" vertex="1" parent="1">
            <mxGeometry x="214" y="1679" width="163" height="38" as="geometry" />
          </mxCell>
        </UserObject>
        <mxCell id="Cari82qWPhB8FJyJu9n--111" value="&lt;div style=&quot;font-size: 1px&quot;&gt;&lt;p style=&quot;text-align:center;margin-left:0;margin-right:0;margin-top:0px;margin-bottom:0px;text-indent:0;vertical-align:middle;direction:ltr;&quot;&gt;&lt;font style=&quot;font-size:11.29px;font-family:Calibri;color:#feffff;direction:ltr;letter-spacing:0px;line-height:120%;opacity:1&quot;&gt;PORT_B = &lt;br/&gt;&lt;/font&gt;&lt;font style=&quot;font-size:8.47px;font-family:Themed;color:#feffff;direction:ltr;letter-spacing:0px;line-height:120%;opacity:1&quot;&gt;((NOT(mask)) AND PORT_B) OR (mask AND byte)&lt;/font&gt;&lt;font style=&quot;font-size:11.29px;font-family:Themed;color:#feffff;direction:ltr;letter-spacing:0px;line-height:120%;opacity:1&quot;&gt;&lt;br/&gt;&lt;/font&gt;&lt;/p&gt;&lt;/div&gt;" style="text;vsdxID=321;fillColor=none;gradientColor=none;strokeColor=none;spacingTop=-1;spacingBottom=-1;spacingLeft=-1;spacingRight=-1;points=[[1,0.5,0],[0.5,0.5,0],[0.5,0,0]];labelBackgroundColor=none;rounded=1;html=1;whiteSpace=wrap;verticalAlign=middle;align=center;overflow=width;;html=1;" vertex="1" parent="Cari82qWPhB8FJyJu9n--110">
          <mxGeometry x="27.25" y="-0.1" width="109.01" height="38.1" as="geometry" />
        </mxCell>
        <UserObject label="" Function="EN_DIO_Error_T DIO_port_write(EN_DIO_PORT_T portNumber, uint8_t byte, uint8_t mask)" tags="Flowchart" id="Cari82qWPhB8FJyJu9n--112">
          <mxCell style="vsdxID=324;fillColor=#345593;gradientColor=none;shape=stencil(UzV2Ls5ILEhVNTIoLinKz04tz0wpyVA1dlE1MsrMy0gtyiwBslSNXVWNndPyi1LTi/JL81Ig/IJEkEoQKze/DGRCBUSfAUiHkUElhGcK4bpBVOZk5iGpNEVVikeloQHZpsK0YlWLz1QgA+HFtMycHEgIIcujBwlQCBKcxq4A);strokeColor=#31528f;spacingTop=-1;spacingBottom=-1;spacingLeft=-1;spacingRight=-1;points=[[1,0.5,0],[0.5,0,0],[0.5,0,0]];labelBackgroundColor=none;rounded=1;html=1;whiteSpace=wrap;" vertex="1" parent="1">
            <mxGeometry x="110" y="1747" width="73" height="55" as="geometry" />
          </mxCell>
        </UserObject>
        <mxCell id="Cari82qWPhB8FJyJu9n--113" value="&lt;div style=&quot;font-size: 1px&quot;&gt;&lt;font style=&quot;font-size:11.29px;font-family:Calibri;color:#feffff;direction:ltr;letter-spacing:0px;line-height:120%;opacity:1&quot;&gt;Case `C`&lt;br/&gt;&lt;/font&gt;&lt;/div&gt;" style="text;vsdxID=324;fillColor=none;gradientColor=none;strokeColor=none;spacingTop=-1;spacingBottom=-1;spacingLeft=-1;spacingRight=-1;points=[[1,0.5,0],[0.5,0,0],[0.5,0,0]];labelBackgroundColor=none;rounded=1;html=1;whiteSpace=wrap;verticalAlign=middle;align=center;overflow=width;;html=1;" vertex="1" parent="Cari82qWPhB8FJyJu9n--112">
          <mxGeometry x="6.14" y="6.67" width="61.37" height="41.43" as="geometry" />
        </mxCell>
        <UserObject label="" Function="EN_DIO_Error_T DIO_port_write(EN_DIO_PORT_T portNumber, uint8_t byte, uint8_t mask)" tags="Flowchart" id="Cari82qWPhB8FJyJu9n--114">
          <mxCell style="vsdxID=325;fillColor=#4672c4;gradientColor=none;shape=stencil(UzV2Ls5ILEhVNTIoLinKz04tz0wpyVA1dlE1MsrMy0gtyiwBslSNXVWNndPyi1LTi/JL81Ig/IJEkEoQKze/DGRCBUSfrqmehTFIl5FBJUTE0MAAzHeDKM/JzENSbmmiZ2hOvHJDAwzj8agmRS1BdwMZCD+nZebkQIIMWR49jIBCkPA1dgUA);strokeColor=#c8c8c8;spacingTop=-1;spacingBottom=-1;spacingLeft=-1;spacingRight=-1;points=[[1,0.5,0],[0.5,0.5,0],[0.5,0,0]];labelBackgroundColor=none;rounded=1;html=1;whiteSpace=wrap;" vertex="1" parent="1">
            <mxGeometry x="214" y="1755" width="163" height="38" as="geometry" />
          </mxCell>
        </UserObject>
        <mxCell id="Cari82qWPhB8FJyJu9n--115" value="&lt;div style=&quot;font-size: 1px&quot;&gt;&lt;p style=&quot;text-align:center;margin-left:0;margin-right:0;margin-top:0px;margin-bottom:0px;text-indent:0;vertical-align:middle;direction:ltr;&quot;&gt;&lt;font style=&quot;font-size:11.29px;font-family:Calibri;color:#feffff;direction:ltr;letter-spacing:0px;line-height:120%;opacity:1&quot;&gt;PORT_C = &lt;br/&gt;&lt;/font&gt;&lt;font style=&quot;font-size:8.47px;font-family:Themed;color:#feffff;direction:ltr;letter-spacing:0px;line-height:120%;opacity:1&quot;&gt;((NOT(mask)) AND PORT_C) OR (mask AND byte)&lt;/font&gt;&lt;font style=&quot;font-size:11.29px;font-family:Themed;color:#feffff;direction:ltr;letter-spacing:0px;line-height:120%;opacity:1&quot;&gt;&lt;br/&gt;&lt;/font&gt;&lt;/p&gt;&lt;/div&gt;" style="text;vsdxID=325;fillColor=none;gradientColor=none;strokeColor=none;spacingTop=-1;spacingBottom=-1;spacingLeft=-1;spacingRight=-1;points=[[1,0.5,0],[0.5,0.5,0],[0.5,0,0]];labelBackgroundColor=none;rounded=1;html=1;whiteSpace=wrap;verticalAlign=middle;align=center;overflow=width;;html=1;" vertex="1" parent="Cari82qWPhB8FJyJu9n--114">
          <mxGeometry x="27.25" y="-0.1" width="109.01" height="38.1" as="geometry" />
        </mxCell>
        <UserObject label="" Function="EN_DIO_Error_T DIO_port_write(EN_DIO_PORT_T portNumber, uint8_t byte, uint8_t mask)" tags="Flowchart" id="Cari82qWPhB8FJyJu9n--116">
          <mxCell style="vsdxID=327;fillColor=#345593;gradientColor=none;shape=stencil(UzV2Ls5ILEhVNTIoLinKz04tz0wpyVA1dlE1MsrMy0gtyiwBslSNXVWNndPyi1LTi/JL81Ig/IJEkEoQKze/DGRCBUSfAUiHkUElhGcK4bpBVOZk5iGpNEVVikeloQHZpsK0YlWLz1QgA+HFtMycHEgIIcujBwlQCBKcxq4A);strokeColor=#31528f;spacingTop=-1;spacingBottom=-1;spacingLeft=-1;spacingRight=-1;points=[[1,0.5,0],[0.5,0,0],[0.5,0,0]];labelBackgroundColor=none;rounded=1;html=1;whiteSpace=wrap;" vertex="1" parent="1">
            <mxGeometry x="110" y="1836" width="73" height="55" as="geometry" />
          </mxCell>
        </UserObject>
        <mxCell id="Cari82qWPhB8FJyJu9n--117" value="&lt;div style=&quot;font-size: 1px&quot;&gt;&lt;font style=&quot;font-size:11.29px;font-family:Calibri;color:#feffff;direction:ltr;letter-spacing:0px;line-height:120%;opacity:1&quot;&gt;Case `D`&lt;br/&gt;&lt;/font&gt;&lt;/div&gt;" style="text;vsdxID=327;fillColor=none;gradientColor=none;strokeColor=none;spacingTop=-1;spacingBottom=-1;spacingLeft=-1;spacingRight=-1;points=[[1,0.5,0],[0.5,0,0],[0.5,0,0]];labelBackgroundColor=none;rounded=1;html=1;whiteSpace=wrap;verticalAlign=middle;align=center;overflow=width;;html=1;" vertex="1" parent="Cari82qWPhB8FJyJu9n--116">
          <mxGeometry x="6.14" y="6.67" width="61.37" height="41.43" as="geometry" />
        </mxCell>
        <UserObject label="" Function="EN_DIO_Error_T DIO_port_write(EN_DIO_PORT_T portNumber, uint8_t byte, uint8_t mask)" tags="Flowchart" id="Cari82qWPhB8FJyJu9n--118">
          <mxCell style="vsdxID=328;fillColor=#4672c4;gradientColor=none;shape=stencil(UzV2Ls5ILEhVNTIoLinKz04tz0wpyVA1dlE1MsrMy0gtyiwBslSNXVWNndPyi1LTi/JL81Ig/IJEkEoQKze/DGRCBUSfrqmehTFIl5FBJUTE0MAAzHeDKM/JzENSbmmiZ2hOvHJDAwzj8agmRS1BdwMZCD+nZebkQIIMWR49jIBCkPA1dgUA);strokeColor=#c8c8c8;spacingTop=-1;spacingBottom=-1;spacingLeft=-1;spacingRight=-1;points=[[1,0.5,0],[0.5,0.5,0],[0.5,0,0]];labelBackgroundColor=none;rounded=1;html=1;whiteSpace=wrap;" vertex="1" parent="1">
            <mxGeometry x="214" y="1844" width="163" height="38" as="geometry" />
          </mxCell>
        </UserObject>
        <mxCell id="Cari82qWPhB8FJyJu9n--119" value="&lt;div style=&quot;font-size: 1px&quot;&gt;&lt;p style=&quot;text-align:center;margin-left:0;margin-right:0;margin-top:0px;margin-bottom:0px;text-indent:0;vertical-align:middle;direction:ltr;&quot;&gt;&lt;font style=&quot;font-size:11.29px;font-family:Calibri;color:#feffff;direction:ltr;letter-spacing:0px;line-height:120%;opacity:1&quot;&gt;PORT_D = &lt;br/&gt;&lt;/font&gt;&lt;font style=&quot;font-size:8.47px;font-family:Themed;color:#feffff;direction:ltr;letter-spacing:0px;line-height:120%;opacity:1&quot;&gt;((NOT(mask)) AND PORT_D) OR (mask AND byte)&lt;/font&gt;&lt;font style=&quot;font-size:11.29px;font-family:Themed;color:#feffff;direction:ltr;letter-spacing:0px;line-height:120%;opacity:1&quot;&gt;&lt;br/&gt;&lt;/font&gt;&lt;/p&gt;&lt;/div&gt;" style="text;vsdxID=328;fillColor=none;gradientColor=none;strokeColor=none;spacingTop=-1;spacingBottom=-1;spacingLeft=-1;spacingRight=-1;points=[[1,0.5,0],[0.5,0.5,0],[0.5,0,0]];labelBackgroundColor=none;rounded=1;html=1;whiteSpace=wrap;verticalAlign=middle;align=center;overflow=width;;html=1;" vertex="1" parent="Cari82qWPhB8FJyJu9n--118">
          <mxGeometry x="27.25" y="-0.1" width="109.01" height="38.1" as="geometry" />
        </mxCell>
        <UserObject label="" Function="EN_DIO_Error_T DIO_port_write(EN_DIO_PORT_T portNumber, uint8_t byte, uint8_t mask)" tags="Flowchart" id="Cari82qWPhB8FJyJu9n--120">
          <mxCell style="vsdxID=333;fillColor=#345593;gradientColor=none;shape=stencil(UzV2Ls5ILEhVNTIoLinKz04tz0wpyVA1dlE1MsrMy0gtyiwBslSNXVWNndPyi1LTi/JL81Ig/IJEkEoQKze/DGRCBUSfAUiHkUElhGcK4bpBVOZk5iGpNEVVikeloQHZpsK0YlWLz1QgA+HFtMycHEgIIcujBwlQCBKcxq4A);strokeColor=#31528f;spacingTop=-1;spacingBottom=-1;spacingLeft=-1;spacingRight=-1;points=[[1,0.5,0],[0.5,0,0],[0.5,0,0]];labelBackgroundColor=none;rounded=1;html=1;whiteSpace=wrap;" vertex="1" parent="1">
            <mxGeometry x="110" y="1910" width="73" height="55" as="geometry" />
          </mxCell>
        </UserObject>
        <mxCell id="Cari82qWPhB8FJyJu9n--121" value="&lt;div style=&quot;font-size: 1px&quot;&gt;&lt;font style=&quot;font-size:11.29px;font-family:Calibri;color:#feffff;direction:ltr;letter-spacing:0px;line-height:120%;opacity:1&quot;&gt;Else&lt;br/&gt;&lt;/font&gt;&lt;/div&gt;" style="text;vsdxID=333;fillColor=none;gradientColor=none;strokeColor=none;spacingTop=-1;spacingBottom=-1;spacingLeft=-1;spacingRight=-1;points=[[1,0.5,0],[0.5,0,0],[0.5,0,0]];labelBackgroundColor=none;rounded=1;html=1;whiteSpace=wrap;verticalAlign=middle;align=center;overflow=width;;html=1;" vertex="1" parent="Cari82qWPhB8FJyJu9n--120">
          <mxGeometry x="6.14" y="6.67" width="61.37" height="41.43" as="geometry" />
        </mxCell>
        <UserObject label="&lt;div style=&quot;font-size: 1px&quot;&gt;&lt;font style=&quot;font-size:11.29px;font-family:Calibri;color:#feffff;direction:ltr;letter-spacing:0px;line-height:120%;opacity:1&quot;&gt;RETURN DIO_Error&lt;br/&gt;&lt;/font&gt;&lt;/div&gt;" Function="EN_DIO_Error_T DIO_port_write(EN_DIO_PORT_T portNumber, uint8_t byte, uint8_t mask)" tags="Flowchart" id="Cari82qWPhB8FJyJu9n--122">
          <mxCell style="verticalAlign=middle;align=center;overflow=width;vsdxID=335;fillColor=#ed7d31;gradientColor=none;shape=stencil(tVLREoIgEPwaHnEQxsl3s/9gEpSJwDko7e+DsEkze2l627vdu5uFRaxyHe8FosR5sCcxqMZ3iO0Rpcp0ApQPCLEasUpaEC3Yi2lS3fOojOhsr3HDmObyMtsVcYqS29Qh5FEfklwrM5OXeUa/yjkcAwfr7TDpiyTfXvjkMR+Vw2A998qaBac5tAKHU1hq3i4oNwjRr9ofvayt/+Rk+yX/4iWA159KpXWKxJx/z0Bopfyw+g4=);strokeColor=#c8c8c8;spacingTop=-1;spacingBottom=-1;spacingLeft=-1;spacingRight=-1;points=[[0.5,1,0],[0.5,0,0],[0,0.5,0],[1,0.5,0]];labelBackgroundColor=none;rounded=1;html=1;whiteSpace=wrap;" vertex="1" parent="1">
            <mxGeometry x="229" y="1919" width="101" height="38" as="geometry" />
          </mxCell>
        </UserObject>
        <UserObject label="&lt;div style=&quot;font-size: 1px&quot;&gt;&lt;font style=&quot;font-size:11.29px;font-family:Calibri;color:#feffff;direction:ltr;letter-spacing:0px;line-height:120%;opacity:1&quot;&gt;RETURN DIO_OK&lt;br/&gt;&lt;/font&gt;&lt;/div&gt;" Function="EN_DIO_Error_T DIO_port_write(EN_DIO_PORT_T portNumber, uint8_t byte, uint8_t mask)" tags="Flowchart" id="Cari82qWPhB8FJyJu9n--123">
          <mxCell style="verticalAlign=middle;align=center;overflow=width;vsdxID=336;fillColor=#70ad47;gradientColor=none;shape=stencil(tVLREoIgEPwaHnEQxsl3s/9gEpSJwDko7e+DsEkze2l627vdu5uFRaxyHe8FosR5sCcxqMZ3iO0Rpcp0ApQPCLEasUpaEC3Yi2lS3fOojOhsr3HDmObyMtsVcYqS29Qh5FEfklwrM5OXeUa/yjkcAwfr7TDpiyTfXvjkMR+Vw2A998qaBac5tAKHU1hq3i4oNwjRr9ofvayt/+Rk+yX/4iWA159KpXWKxJx/z0Bopfyw+g4=);strokeColor=#c8c8c8;spacingTop=-1;spacingBottom=-1;spacingLeft=-1;spacingRight=-1;points=[[0.5,1,0],[0.5,0,0],[0,0.5,0],[1,0.5,0]];labelBackgroundColor=none;rounded=1;html=1;whiteSpace=wrap;" vertex="1" parent="1">
            <mxGeometry x="96" y="2012" width="101" height="38" as="geometry" />
          </mxCell>
        </UserObject>
        <UserObject label="&lt;div style=&quot;font-size: 1px&quot;&gt;&lt;font style=&quot;font-size:11.29px;font-family:Calibri;color:#feffff;direction:ltr;letter-spacing:0px;line-height:120%;opacity:1&quot;&gt;Start&lt;br/&gt;&lt;/font&gt;&lt;/div&gt;" Function="EN_DIO_Error_T DIO_port_toggle(EN_DIO_PORT_T portNumber, uint8_t mask)" tags="Flowchart" id="Cari82qWPhB8FJyJu9n--124">
          <mxCell style="verticalAlign=middle;align=center;overflow=width;vsdxID=350;fillColor=#70ad47;gradientColor=none;shape=stencil(tVLREoIgEPwaHnEQxsl3s/9gEpSJwDko7e+DsEkze2l627vdu5uFRaxyHe8FosR5sCcxqMZ3iO0Rpcp0ApQPCLEasUpaEC3Yi2lS3fOojOhsr3HDmObyMtsVcYqS29Qh5FEfklwrM5OXeUa/yjkcAwfr7TDpiyTfXvjkMR+Vw2A998qaBac5tAKHU1hq3i4oNwjRr9ofvayt/+Rk+yX/4iWA159KpXWKxJx/z0Bopfyw+g4=);strokeColor=#c8c8c8;spacingTop=-1;spacingBottom=-1;spacingLeft=-1;spacingRight=-1;points=[[0.5,1,0],[0.5,0,0],[0,0.5,0],[1,0.5,0]];labelBackgroundColor=none;rounded=1;html=1;whiteSpace=wrap;" vertex="1" parent="1">
            <mxGeometry x="475" y="1302" width="101" height="38" as="geometry" />
          </mxCell>
        </UserObject>
        <UserObject label="" Function="EN_DIO_Error_T DIO_port_toggle(EN_DIO_PORT_T portNumber, uint8_t mask)" tags="Flowchart" id="Cari82qWPhB8FJyJu9n--125">
          <mxCell style="vsdxID=351;fillColor=#345593;gradientColor=none;shape=stencil(UzV2Ls5ILEhVNTIoLinKz04tz0wpyVA1dlE1MsrMy0gtyiwBslSNXVWNndPyi1LTi/JL81Ig/IJEkEoQKze/DGRCBUSfAUiHkUElhGcK4bpBVOZk5iGpNEVVikeloQHZpsK0YlWLz1QgA+HFtMycHEgIIcujBwlQCBKcxq4A);strokeColor=#31528f;spacingTop=-1;spacingBottom=-1;spacingLeft=-1;spacingRight=-1;points=[[1,0.5,0],[0.5,0,0],[0.5,0,0]];labelBackgroundColor=none;rounded=1;html=1;whiteSpace=wrap;" vertex="1" parent="1">
            <mxGeometry x="488" y="1356" width="74" height="56" as="geometry" />
          </mxCell>
        </UserObject>
        <mxCell id="Cari82qWPhB8FJyJu9n--126" value="&lt;div style=&quot;font-size: 1px&quot;&gt;&lt;font style=&quot;font-size:11.29px;font-family:Calibri;color:#feffff;direction:ltr;letter-spacing:0px;line-height:120%;opacity:1&quot;&gt;mask == 0&lt;br/&gt;&lt;/font&gt;&lt;/div&gt;" style="text;vsdxID=351;fillColor=none;gradientColor=none;strokeColor=none;spacingTop=-1;spacingBottom=-1;spacingLeft=-1;spacingRight=-1;points=[[1,0.5,0],[0.5,0,0],[0.5,0,0]];labelBackgroundColor=none;rounded=1;html=1;whiteSpace=wrap;verticalAlign=middle;align=center;overflow=width;;html=1;" vertex="1" parent="Cari82qWPhB8FJyJu9n--125">
          <mxGeometry x="6.25" y="6.81" width="62.47" height="42.16" as="geometry" />
        </mxCell>
        <UserObject label="&lt;div style=&quot;font-size: 1px&quot;&gt;&lt;font style=&quot;font-size:11.29px;font-family:Calibri;color:#feffff;direction:ltr;letter-spacing:0px;line-height:120%;opacity:1&quot;&gt;mask = 0xFF&lt;br/&gt;&lt;/font&gt;&lt;/div&gt;" Function="EN_DIO_Error_T DIO_port_toggle(EN_DIO_PORT_T portNumber, uint8_t mask)" tags="Flowchart" id="Cari82qWPhB8FJyJu9n--127">
          <mxCell style="verticalAlign=middle;align=center;overflow=width;vsdxID=352;fillColor=#4672c4;gradientColor=none;shape=stencil(nZBLDoAgDERP0z3SIyjew0SURgSD+Lu9kMZoXLhwN9O+tukAlrNpJg1SzDH4QW/URgNYgZTkjA4UkwJUgGXng+6DX1zLfmoymdXo17xh5zmRJ6Q42BWCfc2oJfdAr+Yv+AP9Cb7OJ3H/2JG1HNGz/84klThPVCc=);strokeColor=#c8c8c8;spacingTop=-1;spacingBottom=-1;spacingLeft=-1;spacingRight=-1;points=[[1,0.5,0],[0.5,0.5,0],[0.5,0,0]];labelBackgroundColor=none;rounded=1;html=1;whiteSpace=wrap;" vertex="1" parent="1">
            <mxGeometry x="614" y="1401" width="57" height="42" as="geometry" />
          </mxCell>
        </UserObject>
        <UserObject label="&lt;div style=&quot;font-size: 1px&quot;&gt;&lt;font style=&quot;font-size:11.29px;font-family:Calibri;color:#feffff;direction:ltr;letter-spacing:0px;line-height:120%;opacity:1&quot;&gt;Switch `portNumber`&lt;br/&gt;&lt;/font&gt;&lt;/div&gt;" Function="EN_DIO_Error_T DIO_port_toggle(EN_DIO_PORT_T portNumber, uint8_t mask)" tags="Flowchart" id="Cari82qWPhB8FJyJu9n--128">
          <mxCell style="verticalAlign=middle;align=center;overflow=width;vsdxID=354;fillColor=#4672c4;gradientColor=none;shape=stencil(nZBLDoAgDERP0z3SIyjew0SURgSD+Lu9kMZoXLhwN9O+tukAlrNpJg1SzDH4QW/URgNYgZTkjA4UkwJUgGXng+6DX1zLfmoymdXo17xh5zmRJ6Q42BWCfc2oJfdAr+Yv+AP9Cb7OJ3H/2JG1HNGz/84klThPVCc=);strokeColor=#c8c8c8;spacingTop=-1;spacingBottom=-1;spacingLeft=-1;spacingRight=-1;points=[[0,0.5,0],[1,0.5,0],[0.5,1,0],[0.5,0,0]];labelBackgroundColor=none;rounded=1;html=1;whiteSpace=wrap;" vertex="1" parent="1">
            <mxGeometry x="475" y="1492" width="101" height="38" as="geometry" />
          </mxCell>
        </UserObject>
        <UserObject label="" Function="EN_DIO_Error_T DIO_port_toggle(EN_DIO_PORT_T portNumber, uint8_t mask)" tags="Flowchart" id="Cari82qWPhB8FJyJu9n--129">
          <mxCell style="vsdxID=358;fillColor=#345593;gradientColor=none;shape=stencil(UzV2Ls5ILEhVNTIoLinKz04tz0wpyVA1dlE1MsrMy0gtyiwBslSNXVWNndPyi1LTi/JL81Ig/IJEkEoQKze/DGRCBUSfAUiHkUElhGcK4bpBVOZk5iGpNEVVikeloQHZpsK0YlWLz1QgA+HFtMycHEgIIcujBwlQCBKcxq4A);strokeColor=#31528f;spacingTop=-1;spacingBottom=-1;spacingLeft=-1;spacingRight=-1;points=[[1,0.5,0],[0.5,0,0],[0.5,0,0]];labelBackgroundColor=none;rounded=1;html=1;whiteSpace=wrap;" vertex="1" parent="1">
            <mxGeometry x="488" y="1550" width="73" height="55" as="geometry" />
          </mxCell>
        </UserObject>
        <mxCell id="Cari82qWPhB8FJyJu9n--130" value="&lt;div style=&quot;font-size: 1px&quot;&gt;&lt;font style=&quot;font-size:11.29px;font-family:Calibri;color:#feffff;direction:ltr;letter-spacing:0px;line-height:120%;opacity:1&quot;&gt;Case `A`&lt;br/&gt;&lt;/font&gt;&lt;/div&gt;" style="text;vsdxID=358;fillColor=none;gradientColor=none;strokeColor=none;spacingTop=-1;spacingBottom=-1;spacingLeft=-1;spacingRight=-1;points=[[1,0.5,0],[0.5,0,0],[0.5,0,0]];labelBackgroundColor=none;rounded=1;html=1;whiteSpace=wrap;verticalAlign=middle;align=center;overflow=width;;html=1;" vertex="1" parent="Cari82qWPhB8FJyJu9n--129">
          <mxGeometry x="6.14" y="6.67" width="61.37" height="41.43" as="geometry" />
        </mxCell>
        <UserObject label="" Function="EN_DIO_Error_T DIO_port_toggle(EN_DIO_PORT_T portNumber, uint8_t mask)" tags="Flowchart" id="Cari82qWPhB8FJyJu9n--131">
          <mxCell style="vsdxID=359;fillColor=#4672c4;gradientColor=none;shape=stencil(UzV2Ls5ILEhVNTIoLinKz04tz0wpyVA1dlE1MsrMy0gtyiwBslSNXVWNndPyi1LTi/JL81Ig/IJEkEoQKze/DGRCBUSfrqmehTFIl5FBJUTE0MAAzHeDKM/JzENSbmmiZ2hOvHJDAwzj8agmRS1BdwMZCD+nZebkQIIMWR49jIBCkPA1dgUA);strokeColor=#c8c8c8;spacingTop=-1;spacingBottom=-1;spacingLeft=-1;spacingRight=-1;points=[[1,0.5,0],[0.5,0.5,0],[0.5,0,0]];labelBackgroundColor=none;rounded=1;html=1;whiteSpace=wrap;" vertex="1" parent="1">
            <mxGeometry x="593" y="1559" width="163" height="38" as="geometry" />
          </mxCell>
        </UserObject>
        <mxCell id="Cari82qWPhB8FJyJu9n--132" value="&lt;div style=&quot;font-size: 1px&quot;&gt;&lt;p style=&quot;text-align:center;margin-left:0;margin-right:0;margin-top:0px;margin-bottom:0px;text-indent:0;vertical-align:middle;direction:ltr;&quot;&gt;&lt;font style=&quot;font-size:11.29px;font-family:Calibri;color:#feffff;direction:ltr;letter-spacing:0px;line-height:120%;opacity:1&quot;&gt;PORT_A = PORT_A XOR `mask`&lt;br/&gt;&lt;/font&gt;&lt;/p&gt;&lt;/div&gt;" style="text;vsdxID=359;fillColor=none;gradientColor=none;strokeColor=none;spacingTop=-1;spacingBottom=-1;spacingLeft=-1;spacingRight=-1;points=[[1,0.5,0],[0.5,0.5,0],[0.5,0,0]];labelBackgroundColor=none;rounded=1;html=1;whiteSpace=wrap;verticalAlign=middle;align=center;overflow=width;;html=1;" vertex="1" parent="Cari82qWPhB8FJyJu9n--131">
          <mxGeometry x="27.25" y="-0.1" width="109.01" height="38.1" as="geometry" />
        </mxCell>
        <UserObject label="" Function="EN_DIO_Error_T DIO_port_toggle(EN_DIO_PORT_T portNumber, uint8_t mask)" tags="Flowchart" id="Cari82qWPhB8FJyJu9n--133">
          <mxCell style="vsdxID=362;fillColor=#345593;gradientColor=none;shape=stencil(UzV2Ls5ILEhVNTIoLinKz04tz0wpyVA1dlE1MsrMy0gtyiwBslSNXVWNndPyi1LTi/JL81Ig/IJEkEoQKze/DGRCBUSfAUiHkUElhGcK4bpBVOZk5iGpNEVVikeloQHZpsK0YlWLz1QgA+HFtMycHEgIIcujBwlQCBKcxq4A);strokeColor=#31528f;spacingTop=-1;spacingBottom=-1;spacingLeft=-1;spacingRight=-1;points=[[1,0.5,0],[0.5,0,0],[0.5,0,0]];labelBackgroundColor=none;rounded=1;html=1;whiteSpace=wrap;" vertex="1" parent="1">
            <mxGeometry x="488" y="1628" width="73" height="55" as="geometry" />
          </mxCell>
        </UserObject>
        <mxCell id="Cari82qWPhB8FJyJu9n--134" value="&lt;div style=&quot;font-size: 1px&quot;&gt;&lt;font style=&quot;font-size:11.29px;font-family:Calibri;color:#feffff;direction:ltr;letter-spacing:0px;line-height:120%;opacity:1&quot;&gt;Case `B`&lt;br/&gt;&lt;/font&gt;&lt;/div&gt;" style="text;vsdxID=362;fillColor=none;gradientColor=none;strokeColor=none;spacingTop=-1;spacingBottom=-1;spacingLeft=-1;spacingRight=-1;points=[[1,0.5,0],[0.5,0,0],[0.5,0,0]];labelBackgroundColor=none;rounded=1;html=1;whiteSpace=wrap;verticalAlign=middle;align=center;overflow=width;;html=1;" vertex="1" parent="Cari82qWPhB8FJyJu9n--133">
          <mxGeometry x="6.14" y="6.67" width="61.37" height="41.43" as="geometry" />
        </mxCell>
        <UserObject label="" Function="EN_DIO_Error_T DIO_port_toggle(EN_DIO_PORT_T portNumber, uint8_t mask)" tags="Flowchart" id="Cari82qWPhB8FJyJu9n--135">
          <mxCell style="vsdxID=363;fillColor=#4672c4;gradientColor=none;shape=stencil(UzV2Ls5ILEhVNTIoLinKz04tz0wpyVA1dlE1MsrMy0gtyiwBslSNXVWNndPyi1LTi/JL81Ig/IJEkEoQKze/DGRCBUSfrqmehTFIl5FBJUTE0MAAzHeDKM/JzENSbmmiZ2hOvHJDAwzj8agmRS1BdwMZCD+nZebkQIIMWR49jIBCkPA1dgUA);strokeColor=#c8c8c8;spacingTop=-1;spacingBottom=-1;spacingLeft=-1;spacingRight=-1;points=[[1,0.5,0],[0.5,0.5,0],[0.5,0,0]];labelBackgroundColor=none;rounded=1;html=1;whiteSpace=wrap;" vertex="1" parent="1">
            <mxGeometry x="593" y="1636" width="163" height="38" as="geometry" />
          </mxCell>
        </UserObject>
        <mxCell id="Cari82qWPhB8FJyJu9n--136" value="&lt;div style=&quot;font-size: 1px&quot;&gt;&lt;p style=&quot;text-align:center;margin-left:0;margin-right:0;margin-top:0px;margin-bottom:0px;text-indent:0;vertical-align:middle;direction:ltr;&quot;&gt;&lt;font style=&quot;font-size:11.29px;font-family:Calibri;color:#feffff;direction:ltr;letter-spacing:0px;line-height:120%;opacity:1&quot;&gt;PORT_D = PORT_D XOR `mask`&lt;/font&gt;&lt;font style=&quot;font-size:11.29px;font-family:Themed;color:#feffff;direction:ltr;letter-spacing:0px;line-height:120%;opacity:1&quot;&gt;&lt;br/&gt;&lt;/font&gt;&lt;/p&gt;&lt;/div&gt;" style="text;vsdxID=363;fillColor=none;gradientColor=none;strokeColor=none;spacingTop=-1;spacingBottom=-1;spacingLeft=-1;spacingRight=-1;points=[[1,0.5,0],[0.5,0.5,0],[0.5,0,0]];labelBackgroundColor=none;rounded=1;html=1;whiteSpace=wrap;verticalAlign=middle;align=center;overflow=width;;html=1;" vertex="1" parent="Cari82qWPhB8FJyJu9n--135">
          <mxGeometry x="27.25" y="-0.1" width="109.01" height="38.1" as="geometry" />
        </mxCell>
        <UserObject label="" Function="EN_DIO_Error_T DIO_port_toggle(EN_DIO_PORT_T portNumber, uint8_t mask)" tags="Flowchart" id="Cari82qWPhB8FJyJu9n--137">
          <mxCell style="vsdxID=366;fillColor=#345593;gradientColor=none;shape=stencil(UzV2Ls5ILEhVNTIoLinKz04tz0wpyVA1dlE1MsrMy0gtyiwBslSNXVWNndPyi1LTi/JL81Ig/IJEkEoQKze/DGRCBUSfAUiHkUElhGcK4bpBVOZk5iGpNEVVikeloQHZpsK0YlWLz1QgA+HFtMycHEgIIcujBwlQCBKcxq4A);strokeColor=#31528f;spacingTop=-1;spacingBottom=-1;spacingLeft=-1;spacingRight=-1;points=[[1,0.5,0],[0.5,0,0],[0.5,0,0]];labelBackgroundColor=none;rounded=1;html=1;whiteSpace=wrap;" vertex="1" parent="1">
            <mxGeometry x="488" y="1704" width="73" height="55" as="geometry" />
          </mxCell>
        </UserObject>
        <mxCell id="Cari82qWPhB8FJyJu9n--138" value="&lt;div style=&quot;font-size: 1px&quot;&gt;&lt;font style=&quot;font-size:11.29px;font-family:Calibri;color:#feffff;direction:ltr;letter-spacing:0px;line-height:120%;opacity:1&quot;&gt;Case `C`&lt;br/&gt;&lt;/font&gt;&lt;/div&gt;" style="text;vsdxID=366;fillColor=none;gradientColor=none;strokeColor=none;spacingTop=-1;spacingBottom=-1;spacingLeft=-1;spacingRight=-1;points=[[1,0.5,0],[0.5,0,0],[0.5,0,0]];labelBackgroundColor=none;rounded=1;html=1;whiteSpace=wrap;verticalAlign=middle;align=center;overflow=width;;html=1;" vertex="1" parent="Cari82qWPhB8FJyJu9n--137">
          <mxGeometry x="6.14" y="6.67" width="61.37" height="41.43" as="geometry" />
        </mxCell>
        <UserObject label="" Function="EN_DIO_Error_T DIO_port_toggle(EN_DIO_PORT_T portNumber, uint8_t mask)" tags="Flowchart" id="Cari82qWPhB8FJyJu9n--139">
          <mxCell style="vsdxID=367;fillColor=#4672c4;gradientColor=none;shape=stencil(UzV2Ls5ILEhVNTIoLinKz04tz0wpyVA1dlE1MsrMy0gtyiwBslSNXVWNndPyi1LTi/JL81Ig/IJEkEoQKze/DGRCBUSfrqmehTFIl5FBJUTE0MAAzHeDKM/JzENSbmmiZ2hOvHJDAwzj8agmRS1BdwMZCD+nZebkQIIMWR49jIBCkPA1dgUA);strokeColor=#c8c8c8;spacingTop=-1;spacingBottom=-1;spacingLeft=-1;spacingRight=-1;points=[[1,0.5,0],[0.5,0.5,0],[0.5,0,0]];labelBackgroundColor=none;rounded=1;html=1;whiteSpace=wrap;" vertex="1" parent="1">
            <mxGeometry x="593" y="1712" width="163" height="38" as="geometry" />
          </mxCell>
        </UserObject>
        <mxCell id="Cari82qWPhB8FJyJu9n--140" value="&lt;div style=&quot;font-size: 1px&quot;&gt;&lt;p style=&quot;text-align:center;margin-left:0;margin-right:0;margin-top:0px;margin-bottom:0px;text-indent:0;vertical-align:middle;direction:ltr;&quot;&gt;&lt;font style=&quot;font-size:11.29px;font-family:Calibri;color:#feffff;direction:ltr;letter-spacing:0px;line-height:120%;opacity:1&quot;&gt;PORT_C = PORT_C XOR `mask`&lt;/font&gt;&lt;font style=&quot;font-size:11.29px;font-family:Themed;color:#feffff;direction:ltr;letter-spacing:0px;line-height:120%;opacity:1&quot;&gt;&lt;br/&gt;&lt;/font&gt;&lt;/p&gt;&lt;/div&gt;" style="text;vsdxID=367;fillColor=none;gradientColor=none;strokeColor=none;spacingTop=-1;spacingBottom=-1;spacingLeft=-1;spacingRight=-1;points=[[1,0.5,0],[0.5,0.5,0],[0.5,0,0]];labelBackgroundColor=none;rounded=1;html=1;whiteSpace=wrap;verticalAlign=middle;align=center;overflow=width;;html=1;" vertex="1" parent="Cari82qWPhB8FJyJu9n--139">
          <mxGeometry x="27.25" y="-0.1" width="109.01" height="38.1" as="geometry" />
        </mxCell>
        <UserObject label="" Function="EN_DIO_Error_T DIO_port_toggle(EN_DIO_PORT_T portNumber, uint8_t mask)" tags="Flowchart" id="Cari82qWPhB8FJyJu9n--141">
          <mxCell style="vsdxID=369;fillColor=#345593;gradientColor=none;shape=stencil(UzV2Ls5ILEhVNTIoLinKz04tz0wpyVA1dlE1MsrMy0gtyiwBslSNXVWNndPyi1LTi/JL81Ig/IJEkEoQKze/DGRCBUSfAUiHkUElhGcK4bpBVOZk5iGpNEVVikeloQHZpsK0YlWLz1QgA+HFtMycHEgIIcujBwlQCBKcxq4A);strokeColor=#31528f;spacingTop=-1;spacingBottom=-1;spacingLeft=-1;spacingRight=-1;points=[[1,0.5,0],[0.5,0,0],[0.5,0,0]];labelBackgroundColor=none;rounded=1;html=1;whiteSpace=wrap;" vertex="1" parent="1">
            <mxGeometry x="488" y="1793" width="73" height="55" as="geometry" />
          </mxCell>
        </UserObject>
        <mxCell id="Cari82qWPhB8FJyJu9n--142" value="&lt;div style=&quot;font-size: 1px&quot;&gt;&lt;font style=&quot;font-size:11.29px;font-family:Calibri;color:#feffff;direction:ltr;letter-spacing:0px;line-height:120%;opacity:1&quot;&gt;Case `D`&lt;br/&gt;&lt;/font&gt;&lt;/div&gt;" style="text;vsdxID=369;fillColor=none;gradientColor=none;strokeColor=none;spacingTop=-1;spacingBottom=-1;spacingLeft=-1;spacingRight=-1;points=[[1,0.5,0],[0.5,0,0],[0.5,0,0]];labelBackgroundColor=none;rounded=1;html=1;whiteSpace=wrap;verticalAlign=middle;align=center;overflow=width;;html=1;" vertex="1" parent="Cari82qWPhB8FJyJu9n--141">
          <mxGeometry x="6.14" y="6.67" width="61.37" height="41.43" as="geometry" />
        </mxCell>
        <UserObject label="" Function="EN_DIO_Error_T DIO_port_toggle(EN_DIO_PORT_T portNumber, uint8_t mask)" tags="Flowchart" id="Cari82qWPhB8FJyJu9n--143">
          <mxCell style="vsdxID=370;fillColor=#4672c4;gradientColor=none;shape=stencil(UzV2Ls5ILEhVNTIoLinKz04tz0wpyVA1dlE1MsrMy0gtyiwBslSNXVWNndPyi1LTi/JL81Ig/IJEkEoQKze/DGRCBUSfrqmehTFIl5FBJUTE0MAAzHeDKM/JzENSbmmiZ2hOvHJDAwzj8agmRS1BdwMZCD+nZebkQIIMWR49jIBCkPA1dgUA);strokeColor=#c8c8c8;spacingTop=-1;spacingBottom=-1;spacingLeft=-1;spacingRight=-1;points=[[1,0.5,0],[0.5,0.5,0],[0.5,0,0]];labelBackgroundColor=none;rounded=1;html=1;whiteSpace=wrap;" vertex="1" parent="1">
            <mxGeometry x="593" y="1801" width="163" height="38" as="geometry" />
          </mxCell>
        </UserObject>
        <mxCell id="Cari82qWPhB8FJyJu9n--144" value="&lt;div style=&quot;font-size: 1px&quot;&gt;&lt;p style=&quot;text-align:center;margin-left:0;margin-right:0;margin-top:0px;margin-bottom:0px;text-indent:0;vertical-align:middle;direction:ltr;&quot;&gt;&lt;font style=&quot;font-size:11.29px;font-family:Calibri;color:#feffff;direction:ltr;letter-spacing:0px;line-height:120%;opacity:1&quot;&gt;PORT_D = PORT_D  XOR `mask`&lt;/font&gt;&lt;font style=&quot;font-size:11.29px;font-family:Themed;color:#feffff;direction:ltr;letter-spacing:0px;line-height:120%;opacity:1&quot;&gt;&lt;br/&gt;&lt;/font&gt;&lt;/p&gt;&lt;/div&gt;" style="text;vsdxID=370;fillColor=none;gradientColor=none;strokeColor=none;spacingTop=-1;spacingBottom=-1;spacingLeft=-1;spacingRight=-1;points=[[1,0.5,0],[0.5,0.5,0],[0.5,0,0]];labelBackgroundColor=none;rounded=1;html=1;whiteSpace=wrap;verticalAlign=middle;align=center;overflow=width;;html=1;" vertex="1" parent="Cari82qWPhB8FJyJu9n--143">
          <mxGeometry x="27.25" y="-0.1" width="109.01" height="38.1" as="geometry" />
        </mxCell>
        <UserObject label="" Function="EN_DIO_Error_T DIO_port_toggle(EN_DIO_PORT_T portNumber, uint8_t mask)" tags="Flowchart" id="Cari82qWPhB8FJyJu9n--145">
          <mxCell style="vsdxID=374;fillColor=#345593;gradientColor=none;shape=stencil(UzV2Ls5ILEhVNTIoLinKz04tz0wpyVA1dlE1MsrMy0gtyiwBslSNXVWNndPyi1LTi/JL81Ig/IJEkEoQKze/DGRCBUSfAUiHkUElhGcK4bpBVOZk5iGpNEVVikeloQHZpsK0YlWLz1QgA+HFtMycHEgIIcujBwlQCBKcxq4A);strokeColor=#31528f;spacingTop=-1;spacingBottom=-1;spacingLeft=-1;spacingRight=-1;points=[[1,0.5,0],[0.5,0,0],[0.5,0,0]];labelBackgroundColor=none;rounded=1;html=1;whiteSpace=wrap;" vertex="1" parent="1">
            <mxGeometry x="488" y="1867" width="73" height="55" as="geometry" />
          </mxCell>
        </UserObject>
        <mxCell id="Cari82qWPhB8FJyJu9n--146" value="&lt;div style=&quot;font-size: 1px&quot;&gt;&lt;font style=&quot;font-size:11.29px;font-family:Calibri;color:#feffff;direction:ltr;letter-spacing:0px;line-height:120%;opacity:1&quot;&gt;Else&lt;br/&gt;&lt;/font&gt;&lt;/div&gt;" style="text;vsdxID=374;fillColor=none;gradientColor=none;strokeColor=none;spacingTop=-1;spacingBottom=-1;spacingLeft=-1;spacingRight=-1;points=[[1,0.5,0],[0.5,0,0],[0.5,0,0]];labelBackgroundColor=none;rounded=1;html=1;whiteSpace=wrap;verticalAlign=middle;align=center;overflow=width;;html=1;" vertex="1" parent="Cari82qWPhB8FJyJu9n--145">
          <mxGeometry x="6.14" y="6.67" width="61.37" height="41.43" as="geometry" />
        </mxCell>
        <UserObject label="&lt;div style=&quot;font-size: 1px&quot;&gt;&lt;font style=&quot;font-size:11.29px;font-family:Calibri;color:#feffff;direction:ltr;letter-spacing:0px;line-height:120%;opacity:1&quot;&gt;RETURN DIO_Error&lt;br/&gt;&lt;/font&gt;&lt;/div&gt;" Function="EN_DIO_Error_T DIO_port_toggle(EN_DIO_PORT_T portNumber, uint8_t mask)" tags="Flowchart" id="Cari82qWPhB8FJyJu9n--147">
          <mxCell style="verticalAlign=middle;align=center;overflow=width;vsdxID=375;fillColor=#ed7d31;gradientColor=none;shape=stencil(tVLREoIgEPwaHnEQxsl3s/9gEpSJwDko7e+DsEkze2l627vdu5uFRaxyHe8FosR5sCcxqMZ3iO0Rpcp0ApQPCLEasUpaEC3Yi2lS3fOojOhsr3HDmObyMtsVcYqS29Qh5FEfklwrM5OXeUa/yjkcAwfr7TDpiyTfXvjkMR+Vw2A998qaBac5tAKHU1hq3i4oNwjRr9ofvayt/+Rk+yX/4iWA159KpXWKxJx/z0Bopfyw+g4=);strokeColor=#c8c8c8;spacingTop=-1;spacingBottom=-1;spacingLeft=-1;spacingRight=-1;points=[[0.5,1,0],[0.5,0,0],[0,0.5,0],[1,0.5,0]];labelBackgroundColor=none;rounded=1;html=1;whiteSpace=wrap;" vertex="1" parent="1">
            <mxGeometry x="607" y="1876" width="101" height="38" as="geometry" />
          </mxCell>
        </UserObject>
        <UserObject label="&lt;div style=&quot;font-size: 1px&quot;&gt;&lt;font style=&quot;font-size:11.29px;font-family:Calibri;color:#feffff;direction:ltr;letter-spacing:0px;line-height:120%;opacity:1&quot;&gt;RETURN DIO_OK&lt;br/&gt;&lt;/font&gt;&lt;/div&gt;" Function="EN_DIO_Error_T DIO_port_toggle(EN_DIO_PORT_T portNumber, uint8_t mask)" tags="Flowchart" id="Cari82qWPhB8FJyJu9n--148">
          <mxCell style="verticalAlign=middle;align=center;overflow=width;vsdxID=376;fillColor=#70ad47;gradientColor=none;shape=stencil(tVLREoIgEPwaHnEQxsl3s/9gEpSJwDko7e+DsEkze2l627vdu5uFRaxyHe8FosR5sCcxqMZ3iO0Rpcp0ApQPCLEasUpaEC3Yi2lS3fOojOhsr3HDmObyMtsVcYqS29Qh5FEfklwrM5OXeUa/yjkcAwfr7TDpiyTfXvjkMR+Vw2A998qaBac5tAKHU1hq3i4oNwjRr9ofvayt/+Rk+yX/4iWA159KpXWKxJx/z0Bopfyw+g4=);strokeColor=#c8c8c8;spacingTop=-1;spacingBottom=-1;spacingLeft=-1;spacingRight=-1;points=[[0.5,1,0],[0.5,0,0],[0,0.5,0],[1,0.5,0]];labelBackgroundColor=none;rounded=1;html=1;whiteSpace=wrap;" vertex="1" parent="1">
            <mxGeometry x="475" y="1969" width="101" height="38" as="geometry" />
          </mxCell>
        </UserObject>
        <UserObject label="" tags="Connector" id="Cari82qWPhB8FJyJu9n--149">
          <mxCell style="vsdxID=385;edgeStyle=none;startArrow=none;endArrow=block;startSize=5;endSize=5;strokeColor=#4672c4;spacingTop=0;spacingBottom=0;spacingLeft=0;spacingRight=0;verticalAlign=middle;html=1;labelBackgroundColor=#ffffff;rounded=1;exitX=0.5068493150684932;exitY=1;exitDx=0;exitDy=0;exitPerimeter=0;entryX=0.5068493150684932;entryY=0;entryDx=0;entryDy=0;entryPerimeter=0;" edge="1" parent="1" source="Cari82qWPhB8FJyJu9n--141" target="Cari82qWPhB8FJyJu9n--145">
            <mxGeometry relative="1" as="geometry">
              <mxPoint x="12" y="-1" as="offset" />
              <Array as="points" />
            </mxGeometry>
          </mxCell>
        </UserObject>
        <UserObject label="" tags="Connector" id="Cari82qWPhB8FJyJu9n--150">
          <mxCell style="vsdxID=384;edgeStyle=none;startArrow=none;endArrow=block;startSize=5;endSize=5;strokeColor=#4672c4;spacingTop=0;spacingBottom=0;spacingLeft=0;spacingRight=0;verticalAlign=middle;html=1;labelBackgroundColor=#ffffff;rounded=1;exitX=0.5068493150684932;exitY=1;exitDx=0;exitDy=0;exitPerimeter=0;entryX=0.5068493150684932;entryY=0;entryDx=0;entryDy=0;entryPerimeter=0;" edge="1" parent="1" source="Cari82qWPhB8FJyJu9n--116" target="Cari82qWPhB8FJyJu9n--120">
            <mxGeometry relative="1" as="geometry">
              <mxPoint x="12" y="-1" as="offset" />
              <Array as="points" />
            </mxGeometry>
          </mxCell>
        </UserObject>
        <UserObject label="" tags="Connector" id="Cari82qWPhB8FJyJu9n--151">
          <mxCell style="vsdxID=378;edgeStyle=none;startArrow=none;endArrow=block;startSize=5;endSize=3;strokeWidth=3;strokeColor=#70ad47;spacingTop=0;spacingBottom=0;spacingLeft=0;spacingRight=0;verticalAlign=middle;html=1;labelBackgroundColor=#ffffff;rounded=1;exitX=0.5068493150684932;exitY=1;exitDx=0;exitDy=0;exitPerimeter=0;entryX=0.49504950495049505;entryY=0;entryDx=0;entryDy=0;entryPerimeter=0;" edge="1" parent="1" source="Cari82qWPhB8FJyJu9n--145" target="Cari82qWPhB8FJyJu9n--148">
            <mxGeometry relative="1" as="geometry">
              <mxPoint x="12" as="offset" />
              <Array as="points" />
            </mxGeometry>
          </mxCell>
        </UserObject>
        <UserObject label="" tags="Connector" id="Cari82qWPhB8FJyJu9n--152">
          <mxCell style="vsdxID=377;edgeStyle=none;startArrow=none;endArrow=block;startSize=5;endSize=5;strokeColor=#ed7d31;spacingTop=0;spacingBottom=0;spacingLeft=0;spacingRight=0;verticalAlign=middle;html=1;labelBackgroundColor=#ffffff;rounded=1;exitX=1.0136986301369864;exitY=0.509090909090909;exitDx=0;exitDy=0;exitPerimeter=0;entryX=0;entryY=0.5;entryDx=0;entryDy=0;entryPerimeter=0;" edge="1" parent="1" source="Cari82qWPhB8FJyJu9n--145" target="Cari82qWPhB8FJyJu9n--147">
            <mxGeometry relative="1" as="geometry">
              <mxPoint x="-1" as="offset" />
              <Array as="points" />
            </mxGeometry>
          </mxCell>
        </UserObject>
        <UserObject label="" tags="Connector" id="Cari82qWPhB8FJyJu9n--153">
          <mxCell style="vsdxID=373;edgeStyle=none;startArrow=none;endArrow=block;startSize=5;endSize=5;strokeColor=#4672c4;spacingTop=0;spacingBottom=0;spacingLeft=0;spacingRight=0;verticalAlign=middle;html=1;labelBackgroundColor=#ffffff;rounded=1;exitX=0.5068493150684932;exitY=1;exitDx=0;exitDy=0;exitPerimeter=0;entryX=0.5068493150684932;entryY=0;entryDx=0;entryDy=0;entryPerimeter=0;" edge="1" parent="1" source="Cari82qWPhB8FJyJu9n--137" target="Cari82qWPhB8FJyJu9n--141">
            <mxGeometry relative="1" as="geometry">
              <mxPoint x="12" y="-1" as="offset" />
              <Array as="points" />
            </mxGeometry>
          </mxCell>
        </UserObject>
        <UserObject label="" tags="Connector" id="Cari82qWPhB8FJyJu9n--154">
          <mxCell style="vsdxID=372;edgeStyle=none;startArrow=none;endArrow=block;startSize=5;endSize=5;strokeColor=#4672c4;spacingTop=0;spacingBottom=0;spacingLeft=0;spacingRight=0;verticalAlign=middle;html=1;labelBackgroundColor=#ffffff;rounded=1;exitX=0.5068493150684932;exitY=1;exitDx=0;exitDy=0;exitPerimeter=0;entryX=0.5068493150684932;entryY=0;entryDx=0;entryDy=0;entryPerimeter=0;" edge="1" parent="1" source="Cari82qWPhB8FJyJu9n--133" target="Cari82qWPhB8FJyJu9n--137">
            <mxGeometry relative="1" as="geometry">
              <mxPoint x="12" as="offset" />
              <Array as="points" />
            </mxGeometry>
          </mxCell>
        </UserObject>
        <UserObject label="" tags="Connector" id="Cari82qWPhB8FJyJu9n--155">
          <mxCell style="vsdxID=371;edgeStyle=none;startArrow=none;endArrow=block;startSize=5;endSize=5;strokeColor=#4672c4;spacingTop=0;spacingBottom=0;spacingLeft=0;spacingRight=0;verticalAlign=middle;html=1;labelBackgroundColor=#ffffff;rounded=1;exitX=1.0136986301369864;exitY=0.4909090909090909;exitDx=0;exitDy=0;exitPerimeter=0;entryX=0;entryY=0.5;entryDx=0;entryDy=0;entryPerimeter=0;" edge="1" parent="1" source="Cari82qWPhB8FJyJu9n--141" target="Cari82qWPhB8FJyJu9n--143">
            <mxGeometry relative="1" as="geometry">
              <mxPoint as="offset" />
              <Array as="points" />
            </mxGeometry>
          </mxCell>
        </UserObject>
        <UserObject label="" tags="Connector" id="Cari82qWPhB8FJyJu9n--156">
          <mxCell style="vsdxID=368;edgeStyle=none;startArrow=none;endArrow=block;startSize=5;endSize=5;strokeColor=#4672c4;spacingTop=0;spacingBottom=0;spacingLeft=0;spacingRight=0;verticalAlign=middle;html=1;labelBackgroundColor=#ffffff;rounded=1;exitX=1.0136986301369864;exitY=0.4909090909090909;exitDx=0;exitDy=0;exitPerimeter=0;entryX=0;entryY=0.5;entryDx=0;entryDy=0;entryPerimeter=0;" edge="1" parent="1" source="Cari82qWPhB8FJyJu9n--137" target="Cari82qWPhB8FJyJu9n--139">
            <mxGeometry relative="1" as="geometry">
              <mxPoint as="offset" />
              <Array as="points" />
            </mxGeometry>
          </mxCell>
        </UserObject>
        <UserObject label="" tags="Connector" id="Cari82qWPhB8FJyJu9n--157">
          <mxCell style="vsdxID=365;edgeStyle=none;startArrow=none;endArrow=block;startSize=5;endSize=5;strokeColor=#4672c4;spacingTop=0;spacingBottom=0;spacingLeft=0;spacingRight=0;verticalAlign=middle;html=1;labelBackgroundColor=#ffffff;rounded=1;exitX=0.5068493150684932;exitY=1.018181818181818;exitDx=0;exitDy=0;exitPerimeter=0;entryX=0.5068493150684932;entryY=0;entryDx=0;entryDy=0;entryPerimeter=0;" edge="1" parent="1" source="Cari82qWPhB8FJyJu9n--129" target="Cari82qWPhB8FJyJu9n--133">
            <mxGeometry relative="1" as="geometry">
              <mxPoint x="12" y="-1" as="offset" />
              <Array as="points" />
            </mxGeometry>
          </mxCell>
        </UserObject>
        <UserObject label="" tags="Connector" id="Cari82qWPhB8FJyJu9n--158">
          <mxCell style="vsdxID=364;edgeStyle=none;startArrow=none;endArrow=block;startSize=5;endSize=5;strokeColor=#4672c4;spacingTop=0;spacingBottom=0;spacingLeft=0;spacingRight=0;verticalAlign=middle;html=1;labelBackgroundColor=#ffffff;rounded=1;exitX=1.0136986301369864;exitY=0.4909090909090909;exitDx=0;exitDy=0;exitPerimeter=0;entryX=0;entryY=0.5;entryDx=0;entryDy=0;entryPerimeter=0;" edge="1" parent="1" source="Cari82qWPhB8FJyJu9n--133" target="Cari82qWPhB8FJyJu9n--135">
            <mxGeometry relative="1" as="geometry">
              <mxPoint as="offset" />
              <Array as="points" />
            </mxGeometry>
          </mxCell>
        </UserObject>
        <UserObject label="" tags="Connector" id="Cari82qWPhB8FJyJu9n--159">
          <mxCell style="vsdxID=361;edgeStyle=none;startArrow=none;endArrow=block;startSize=5;endSize=5;strokeColor=#4672c4;spacingTop=0;spacingBottom=0;spacingLeft=0;spacingRight=0;verticalAlign=middle;html=1;labelBackgroundColor=#ffffff;rounded=1;exitX=0.49504950495049505;exitY=1;exitDx=0;exitDy=0;exitPerimeter=0;entryX=0.5068493150684932;entryY=0;entryDx=0;entryDy=0;entryPerimeter=0;" edge="1" parent="1" source="Cari82qWPhB8FJyJu9n--128" target="Cari82qWPhB8FJyJu9n--129">
            <mxGeometry relative="1" as="geometry">
              <mxPoint x="12" as="offset" />
              <Array as="points" />
            </mxGeometry>
          </mxCell>
        </UserObject>
        <UserObject label="" tags="Connector" id="Cari82qWPhB8FJyJu9n--160">
          <mxCell style="vsdxID=360;edgeStyle=none;startArrow=none;endArrow=block;startSize=5;endSize=5;strokeColor=#4672c4;spacingTop=0;spacingBottom=0;spacingLeft=0;spacingRight=0;verticalAlign=middle;html=1;labelBackgroundColor=#ffffff;rounded=1;exitX=1.0136986301369864;exitY=0.509090909090909;exitDx=0;exitDy=0;exitPerimeter=0;entryX=0;entryY=0.5;entryDx=0;entryDy=0;entryPerimeter=0;" edge="1" parent="1" source="Cari82qWPhB8FJyJu9n--129" target="Cari82qWPhB8FJyJu9n--131">
            <mxGeometry relative="1" as="geometry">
              <mxPoint as="offset" />
              <Array as="points" />
            </mxGeometry>
          </mxCell>
        </UserObject>
        <UserObject label="" tags="Connector" id="Cari82qWPhB8FJyJu9n--161">
          <mxCell style="vsdxID=357;edgeStyle=none;startArrow=none;endArrow=block;startSize=5;endSize=5;strokeColor=#4672c4;spacingTop=0;spacingBottom=0;spacingLeft=0;spacingRight=0;verticalAlign=middle;html=1;labelBackgroundColor=#ffffff;rounded=1;exitX=0.49504950495049505;exitY=1;exitDx=0;exitDy=0;exitPerimeter=0;entryX=0.5;entryY=0;entryDx=0;entryDy=0;entryPerimeter=0;" edge="1" parent="1" source="Cari82qWPhB8FJyJu9n--124" target="Cari82qWPhB8FJyJu9n--125">
            <mxGeometry relative="1" as="geometry">
              <mxPoint x="12" as="offset" />
              <Array as="points" />
            </mxGeometry>
          </mxCell>
        </UserObject>
        <UserObject label="" tags="Connector" id="Cari82qWPhB8FJyJu9n--162">
          <mxCell style="vsdxID=356;edgeStyle=none;startArrow=none;endArrow=block;startSize=5;endSize=5;strokeColor=#4672c4;spacingTop=0;spacingBottom=0;spacingLeft=0;spacingRight=0;verticalAlign=middle;html=1;labelBackgroundColor=#ffffff;rounded=1;exitX=0.49122807017543857;exitY=1.0238095238095237;exitDx=0;exitDy=0;exitPerimeter=0;entryX=1;entryY=0.5;entryDx=0;entryDy=0;entryPerimeter=0;" edge="1" parent="1" source="Cari82qWPhB8FJyJu9n--127" target="Cari82qWPhB8FJyJu9n--128">
            <mxGeometry relative="1" as="geometry">
              <mxPoint x="-1" y="-1" as="offset" />
              <Array as="points">
                <mxPoint x="642" y="1511.47" />
              </Array>
            </mxGeometry>
          </mxCell>
        </UserObject>
        <UserObject label="&lt;div style=&quot;font-size: 1px&quot;&gt;&lt;font style=&quot;font-size:11.29px;font-family:Calibri;color:#345593;direction:ltr;letter-spacing:0px;line-height:120%;opacity:1&quot;&gt;False&lt;br/&gt;&lt;/font&gt;&lt;/div&gt;" tags="Connector" id="Cari82qWPhB8FJyJu9n--163">
          <mxCell style="vsdxID=355;edgeStyle=none;startArrow=none;endArrow=block;startSize=5;endSize=5;strokeColor=#4672c4;spacingTop=0;spacingBottom=0;spacingLeft=0;spacingRight=0;verticalAlign=middle;html=1;labelBackgroundColor=#ffffff;rounded=1;align=center;overflow=width;exitX=0.5;exitY=1;exitDx=0;exitDy=0;exitPerimeter=0;entryX=0.49504950495049505;entryY=0;entryDx=0;entryDy=0;entryPerimeter=0;" edge="1" parent="1" source="Cari82qWPhB8FJyJu9n--125" target="Cari82qWPhB8FJyJu9n--128">
            <mxGeometry relative="1" as="geometry">
              <mxPoint x="12" y="-1" as="offset" />
              <Array as="points" />
            </mxGeometry>
          </mxCell>
        </UserObject>
        <UserObject label="&lt;div style=&quot;font-size: 1px&quot;&gt;&lt;font style=&quot;font-size:11.29px;font-family:Calibri;color:#345593;direction:ltr;letter-spacing:0px;line-height:120%;opacity:1&quot;&gt;true&lt;br/&gt;&lt;/font&gt;&lt;/div&gt;" tags="Connector" id="Cari82qWPhB8FJyJu9n--164">
          <mxCell style="vsdxID=353;edgeStyle=none;startArrow=none;endArrow=block;startSize=5;endSize=5;strokeColor=#4672c4;spacingTop=0;spacingBottom=0;spacingLeft=0;spacingRight=0;verticalAlign=middle;html=1;labelBackgroundColor=#ffffff;rounded=1;align=center;overflow=width;exitX=1.0135135135135136;exitY=0.5;exitDx=0;exitDy=0;exitPerimeter=0;entryX=0.49122807017543857;entryY=0;entryDx=0;entryDy=0;entryPerimeter=0;" edge="1" parent="1" source="Cari82qWPhB8FJyJu9n--125" target="Cari82qWPhB8FJyJu9n--127">
            <mxGeometry relative="1" as="geometry">
              <mxPoint as="offset" />
              <Array as="points">
                <mxPoint x="642.37" y="1384" />
              </Array>
            </mxGeometry>
          </mxCell>
        </UserObject>
        <UserObject label="" tags="Connector" id="Cari82qWPhB8FJyJu9n--165">
          <mxCell style="vsdxID=338;edgeStyle=none;startArrow=none;endArrow=block;startSize=5;endSize=3;strokeWidth=3;strokeColor=#70ad47;spacingTop=0;spacingBottom=0;spacingLeft=0;spacingRight=0;verticalAlign=middle;html=1;labelBackgroundColor=#ffffff;rounded=1;exitX=0.5068493150684932;exitY=1;exitDx=0;exitDy=0;exitPerimeter=0;entryX=0.504950495049505;entryY=0;entryDx=0;entryDy=0;entryPerimeter=0;" edge="1" parent="1" source="Cari82qWPhB8FJyJu9n--120" target="Cari82qWPhB8FJyJu9n--123">
            <mxGeometry relative="1" as="geometry">
              <mxPoint x="12" as="offset" />
              <Array as="points" />
            </mxGeometry>
          </mxCell>
        </UserObject>
        <UserObject label="" tags="Connector" id="Cari82qWPhB8FJyJu9n--166">
          <mxCell style="vsdxID=337;edgeStyle=none;startArrow=none;endArrow=block;startSize=5;endSize=5;strokeColor=#ed7d31;spacingTop=0;spacingBottom=0;spacingLeft=0;spacingRight=0;verticalAlign=middle;html=1;labelBackgroundColor=#ffffff;rounded=1;exitX=1.0136986301369864;exitY=0.509090909090909;exitDx=0;exitDy=0;exitPerimeter=0;entryX=0;entryY=0.5;entryDx=0;entryDy=0;entryPerimeter=0;" edge="1" parent="1" source="Cari82qWPhB8FJyJu9n--120" target="Cari82qWPhB8FJyJu9n--122">
            <mxGeometry relative="1" as="geometry">
              <mxPoint x="-1" as="offset" />
              <Array as="points" />
            </mxGeometry>
          </mxCell>
        </UserObject>
        <UserObject label="" tags="Connector" id="Cari82qWPhB8FJyJu9n--167">
          <mxCell style="vsdxID=331;edgeStyle=none;startArrow=none;endArrow=block;startSize=5;endSize=5;strokeColor=#4672c4;spacingTop=0;spacingBottom=0;spacingLeft=0;spacingRight=0;verticalAlign=middle;html=1;labelBackgroundColor=#ffffff;rounded=1;exitX=0.5068493150684932;exitY=1;exitDx=0;exitDy=0;exitPerimeter=0;entryX=0.5068493150684932;entryY=0;entryDx=0;entryDy=0;entryPerimeter=0;" edge="1" parent="1" source="Cari82qWPhB8FJyJu9n--112" target="Cari82qWPhB8FJyJu9n--116">
            <mxGeometry relative="1" as="geometry">
              <mxPoint x="12" y="-1" as="offset" />
              <Array as="points" />
            </mxGeometry>
          </mxCell>
        </UserObject>
        <UserObject label="" tags="Connector" id="Cari82qWPhB8FJyJu9n--168">
          <mxCell style="vsdxID=220;edgeStyle=none;startArrow=none;endArrow=block;startSize=5;endSize=5;strokeColor=#4672c4;spacingTop=0;spacingBottom=0;spacingLeft=0;spacingRight=0;verticalAlign=middle;html=1;labelBackgroundColor=#ffffff;rounded=1;exitX=0.5046728971962616;exitY=1.0151515151515151;exitDx=0;exitDy=0;exitPerimeter=0;entryX=0.504950495049505;entryY=0;entryDx=0;entryDy=0;entryPerimeter=0;" edge="1" parent="1" source="Cari82qWPhB8FJyJu9n--78" target="Cari82qWPhB8FJyJu9n--80">
            <mxGeometry relative="1" as="geometry">
              <mxPoint x="-13" as="offset" />
              <Array as="points" />
            </mxGeometry>
          </mxCell>
        </UserObject>
        <mxCell id="Cari82qWPhB8FJyJu9n--169" style="rounded=1;" vertex="1" parent="1">
          <mxGeometry x="264" y="273" as="geometry" />
        </mxCell>
        <UserObject label="&lt;div style=&quot;font-size: 1px&quot;&gt;&lt;font style=&quot;font-size:11.29px;font-family:Calibri;color:#b15d24;direction:ltr;letter-spacing:0px;line-height:120%;opacity:1&quot;&gt;No&lt;br/&gt;&lt;/font&gt;&lt;/div&gt;" tags="Connector" id="Cari82qWPhB8FJyJu9n--170">
          <mxCell style="vsdxID=218;edgeStyle=none;startArrow=none;endArrow=block;startSize=5;endSize=5;strokeColor=#ed7d31;spacingTop=0;spacingBottom=0;spacingLeft=0;spacingRight=0;verticalAlign=middle;html=1;labelBackgroundColor=#ffffff;rounded=1;align=center;overflow=width;exitX=1;exitY=0.5;exitDx=0;exitDy=0;exitPerimeter=0;" edge="1" parent="1" source="Cari82qWPhB8FJyJu9n--78">
            <mxGeometry relative="1" as="geometry">
              <mxPoint x="-1" as="offset" />
              <Array as="points" />
              <mxPoint x="150" y="268" as="sourcePoint" />
              <mxPoint x="264" y="270" as="targetPoint" />
            </mxGeometry>
          </mxCell>
        </UserObject>
        <UserObject label="" tags="Connector" id="Cari82qWPhB8FJyJu9n--171">
          <mxCell style="vsdxID=217;edgeStyle=none;startArrow=none;endArrow=block;startSize=5;endSize=5;strokeColor=#4672c4;spacingTop=0;spacingBottom=0;spacingLeft=0;spacingRight=0;verticalAlign=middle;html=1;labelBackgroundColor=#ffffff;rounded=1;exitX=0.4953271028037383;exitY=1;exitDx=0;exitDy=0;exitPerimeter=0;entryX=0.5046728971962616;entryY=0;entryDx=0;entryDy=0;entryPerimeter=0;" edge="1" parent="1" source="Cari82qWPhB8FJyJu9n--69" target="Cari82qWPhB8FJyJu9n--78">
            <mxGeometry relative="1" as="geometry">
              <mxPoint x="12" y="-1" as="offset" />
              <Array as="points" />
            </mxGeometry>
          </mxCell>
        </UserObject>
        <UserObject label="&lt;div style=&quot;font-size: 1px&quot;&gt;&lt;font style=&quot;font-size:11.29px;font-family:Calibri;color:#b15d24;direction:ltr;letter-spacing:0px;line-height:120%;opacity:1&quot;&gt;No&lt;br/&gt;&lt;/font&gt;&lt;/div&gt;" tags="Connector" id="Cari82qWPhB8FJyJu9n--172">
          <mxCell style="vsdxID=214;edgeStyle=none;startArrow=none;endArrow=block;startSize=5;endSize=5;strokeColor=#ed7d31;spacingTop=0;spacingBottom=0;spacingLeft=0;spacingRight=0;verticalAlign=middle;html=1;labelBackgroundColor=#ffffff;rounded=1;align=center;overflow=width;exitX=1;exitY=0.5;exitDx=0;exitDy=0;exitPerimeter=0;entryX=0.504950495049505;entryY=0;entryDx=0;entryDy=0;entryPerimeter=0;" edge="1" parent="1" source="Cari82qWPhB8FJyJu9n--69" target="Cari82qWPhB8FJyJu9n--71">
            <mxGeometry relative="1" as="geometry">
              <mxPoint as="offset" />
              <Array as="points">
                <mxPoint x="264.02" y="173" />
              </Array>
            </mxGeometry>
          </mxCell>
        </UserObject>
        <UserObject label="" tags="Connector" id="Cari82qWPhB8FJyJu9n--173">
          <mxCell style="vsdxID=32;edgeStyle=none;startArrow=none;endArrow=block;startSize=5;endSize=5;strokeColor=#4672c4;spacingTop=0;spacingBottom=0;spacingLeft=0;spacingRight=0;verticalAlign=middle;html=1;labelBackgroundColor=#ffffff;rounded=1;exitX=0.504950495049505;exitY=1;exitDx=0;exitDy=0;exitPerimeter=0;entryX=0.4953271028037383;entryY=0;entryDx=0;entryDy=0;entryPerimeter=0;" edge="1" parent="1" source="Cari82qWPhB8FJyJu9n--68" target="Cari82qWPhB8FJyJu9n--69">
            <mxGeometry relative="1" as="geometry">
              <mxPoint x="12" y="-1" as="offset" />
              <Array as="points" />
            </mxGeometry>
          </mxCell>
        </UserObject>
        <mxCell id="Cari82qWPhB8FJyJu9n--174" style="rounded=1;" vertex="1" parent="1">
          <mxGeometry x="264" y="375" as="geometry" />
        </mxCell>
        <UserObject label="&lt;div style=&quot;font-size: 1px&quot;&gt;&lt;font style=&quot;font-size:11.29px;font-family:Calibri;color:#b15d24;direction:ltr;letter-spacing:0px;line-height:120%;opacity:1&quot;&gt;No&lt;br/&gt;&lt;/font&gt;&lt;/div&gt;" tags="Connector" id="Cari82qWPhB8FJyJu9n--175">
          <mxCell style="vsdxID=222;edgeStyle=none;startArrow=none;endArrow=block;startSize=5;endSize=5;strokeColor=#ed7d31;spacingTop=0;spacingBottom=0;spacingLeft=0;spacingRight=0;verticalAlign=middle;html=1;labelBackgroundColor=#ffffff;rounded=1;align=center;overflow=width;exitX=1;exitY=0.5;exitDx=0;exitDy=0;exitPerimeter=0;" edge="1" parent="1" source="Cari82qWPhB8FJyJu9n--80">
            <mxGeometry relative="1" as="geometry">
              <mxPoint x="-1" as="offset" />
              <Array as="points">
                <mxPoint x="176.4" y="370" />
                <mxPoint x="180" y="371" />
              </Array>
              <mxPoint x="151" y="370" as="sourcePoint" />
              <mxPoint x="264" y="370" as="targetPoint" />
            </mxGeometry>
          </mxCell>
        </UserObject>
        <UserObject label="" tags="Connector" id="Cari82qWPhB8FJyJu9n--176">
          <mxCell style="vsdxID=225;edgeStyle=none;startArrow=none;endArrow=block;startSize=5;endSize=5;strokeColor=#4672c4;spacingTop=0;spacingBottom=0;spacingLeft=0;spacingRight=0;verticalAlign=middle;html=1;labelBackgroundColor=#ffffff;rounded=1;exitX=0.504950495049505;exitY=1.013157894736842;exitDx=0;exitDy=0;exitPerimeter=0;entryX=0.504950495049505;entryY=0;entryDx=0;entryDy=0;entryPerimeter=0;" edge="1" parent="1" source="Cari82qWPhB8FJyJu9n--80" target="Cari82qWPhB8FJyJu9n--76">
            <mxGeometry relative="1" as="geometry">
              <mxPoint x="12" y="-1" as="offset" />
              <Array as="points" />
            </mxGeometry>
          </mxCell>
        </UserObject>
        <UserObject label="" tags="Connector" id="Cari82qWPhB8FJyJu9n--177">
          <mxCell style="vsdxID=226;edgeStyle=none;startArrow=none;endArrow=block;startSize=5;endSize=5;strokeColor=#70ad47;spacingTop=0;spacingBottom=0;spacingLeft=0;spacingRight=0;verticalAlign=middle;html=1;labelBackgroundColor=#ffffff;rounded=1;exitX=1.00990099009901;exitY=0.49122807017543857;exitDx=0;exitDy=0;exitPerimeter=0;entryX=0;entryY=0.5;entryDx=0;entryDy=0;entryPerimeter=0;" edge="1" parent="1" source="Cari82qWPhB8FJyJu9n--76" target="Cari82qWPhB8FJyJu9n--72">
            <mxGeometry relative="1" as="geometry">
              <mxPoint x="-1" as="offset" />
              <Array as="points">
                <mxPoint x="172.4" y="479" />
                <mxPoint x="172.4" y="488.52" />
              </Array>
            </mxGeometry>
          </mxCell>
        </UserObject>
        <UserObject label="" tags="Connector" id="Cari82qWPhB8FJyJu9n--181">
          <mxCell style="vsdxID=253;edgeStyle=none;startArrow=none;endArrow=block;startSize=5;endSize=5;strokeColor=#4672c4;spacingTop=0;spacingBottom=0;spacingLeft=0;spacingRight=0;verticalAlign=middle;html=1;labelBackgroundColor=#ffffff;rounded=1;exitX=0.49504950495049505;exitY=1;exitDx=0;exitDy=0;exitPerimeter=0;entryX=0.4953271028037383;entryY=0;entryDx=0;entryDy=0;entryPerimeter=0;" edge="1" parent="1" source="Cari82qWPhB8FJyJu9n--87" target="Cari82qWPhB8FJyJu9n--88">
            <mxGeometry relative="1" as="geometry">
              <mxPoint x="11" y="-1" as="offset" />
              <Array as="points">
                <mxPoint x="543" y="629.4" />
                <mxPoint x="545.76" y="629.4" />
              </Array>
            </mxGeometry>
          </mxCell>
        </UserObject>
        <UserObject label="&lt;div style=&quot;font-size: 1px&quot;&gt;&lt;font style=&quot;font-size:11.29px;font-family:Calibri;color:#345593;direction:ltr;letter-spacing:0px;line-height:120%;opacity:1&quot;&gt;DIO_OK&lt;br/&gt;&lt;/font&gt;&lt;/div&gt;" tags="Connector" id="Cari82qWPhB8FJyJu9n--182">
          <mxCell style="vsdxID=257;edgeStyle=none;startArrow=none;endArrow=block;startSize=5;endSize=5;strokeColor=#4672c4;spacingTop=0;spacingBottom=0;spacingLeft=0;spacingRight=0;verticalAlign=middle;html=1;labelBackgroundColor=#ffffff;rounded=1;align=center;overflow=width;exitX=0.4953271028037383;exitY=1.0303030303030303;exitDx=0;exitDy=0;exitPerimeter=0;entryX=0.49504950495049505;entryY=0;entryDx=0;entryDy=0;entryPerimeter=0;" edge="1" parent="1" source="Cari82qWPhB8FJyJu9n--97" target="Cari82qWPhB8FJyJu9n--90">
            <mxGeometry relative="1" as="geometry">
              <mxPoint x="-12" y="-1" as="offset" />
              <Array as="points">
                <mxPoint x="546" y="845.4" />
                <mxPoint x="543.24" y="845.4" />
              </Array>
            </mxGeometry>
          </mxCell>
        </UserObject>
        <UserObject label="&lt;div style=&quot;font-size: 1px&quot;&gt;&lt;font style=&quot;font-size:11.29px;font-family:Calibri;color:#b15d24;direction:ltr;letter-spacing:0px;line-height:120%;opacity:1&quot;&gt;DIO_ERROR&lt;br/&gt;&lt;/font&gt;&lt;/div&gt;" tags="Connector" id="Cari82qWPhB8FJyJu9n--183">
          <mxCell style="vsdxID=258;edgeStyle=none;startArrow=none;endArrow=block;startSize=5;endSize=5;strokeColor=#ed7d31;spacingTop=0;spacingBottom=0;spacingLeft=0;spacingRight=0;verticalAlign=middle;html=1;labelBackgroundColor=#ffffff;rounded=1;align=center;overflow=width;exitX=1;exitY=0.48484848484848486;exitDx=0;exitDy=0;exitPerimeter=0;entryX=0.49504950495049505;entryY=0;entryDx=0;entryDy=0;entryPerimeter=0;" edge="1" parent="1" source="Cari82qWPhB8FJyJu9n--88" target="Cari82qWPhB8FJyJu9n--89">
            <mxGeometry relative="1" as="geometry">
              <mxPoint as="offset" />
              <Array as="points">
                <mxPoint x="698.56" y="659" />
                <mxPoint x="698.56" y="807.23" />
                <mxPoint x="677.58" y="807.23" />
              </Array>
            </mxGeometry>
          </mxCell>
        </UserObject>
        <UserObject label="" tags="Connector" id="Cari82qWPhB8FJyJu9n--184">
          <mxCell style="vsdxID=266;edgeStyle=none;startArrow=none;endArrow=block;startSize=5;endSize=5;strokeColor=#4672c4;spacingTop=0;spacingBottom=0;spacingLeft=0;spacingRight=0;verticalAlign=middle;html=1;labelBackgroundColor=#ffffff;rounded=1;exitX=0.504950495049505;exitY=1;exitDx=0;exitDy=0;exitPerimeter=0;entryX=0.504950495049505;entryY=0;entryDx=0;entryDy=0;entryPerimeter=0;" edge="1" parent="1" source="Cari82qWPhB8FJyJu9n--91" target="Cari82qWPhB8FJyJu9n--94">
            <mxGeometry relative="1" as="geometry">
              <mxPoint x="12" y="-1" as="offset" />
              <Array as="points" />
            </mxGeometry>
          </mxCell>
        </UserObject>
        <UserObject label="&lt;div style=&quot;font-size: 1px&quot;&gt;&lt;font style=&quot;font-size:11.29px;font-family:Calibri;color:#b15d24;direction:ltr;letter-spacing:0px;line-height:120%;opacity:1&quot;&gt;FAIL&lt;br/&gt;&lt;/font&gt;&lt;/div&gt;" tags="Connector" id="Cari82qWPhB8FJyJu9n--185">
          <mxCell style="vsdxID=267;edgeStyle=none;startArrow=none;endArrow=block;startSize=5;endSize=5;strokeColor=#ed7d31;spacingTop=0;spacingBottom=0;spacingLeft=0;spacingRight=0;verticalAlign=middle;html=1;labelBackgroundColor=#ffffff;rounded=1;align=center;overflow=width;exitX=1.00990099009901;exitY=0.5;exitDx=0;exitDy=0;exitPerimeter=0;entryX=0.504950495049505;entryY=0;entryDx=0;entryDy=0;entryPerimeter=0;" edge="1" parent="1" source="Cari82qWPhB8FJyJu9n--94" target="Cari82qWPhB8FJyJu9n--92">
            <mxGeometry relative="1" as="geometry">
              <mxPoint as="offset" />
              <Array as="points">
                <mxPoint x="247.10000000000002" y="709" />
              </Array>
            </mxGeometry>
          </mxCell>
        </UserObject>
        <UserObject label="" tags="Connector" id="Cari82qWPhB8FJyJu9n--186">
          <mxCell style="vsdxID=270;edgeStyle=none;startArrow=none;endArrow=block;startSize=5;endSize=5;strokeColor=#70ad47;spacingTop=0;spacingBottom=0;spacingLeft=0;spacingRight=0;verticalAlign=middle;html=1;labelBackgroundColor=#ffffff;rounded=1;exitX=0.504950495049505;exitY=1;exitDx=0;exitDy=0;exitPerimeter=0;entryX=0.504950495049505;entryY=0;entryDx=0;entryDy=0;entryPerimeter=0;" edge="1" parent="1" source="Cari82qWPhB8FJyJu9n--95" target="Cari82qWPhB8FJyJu9n--93">
            <mxGeometry relative="1" as="geometry">
              <mxPoint x="12" as="offset" />
              <Array as="points" />
            </mxGeometry>
          </mxCell>
        </UserObject>
        <UserObject label="" tags="Connector" id="Cari82qWPhB8FJyJu9n--187">
          <mxCell style="vsdxID=275;edgeStyle=none;startArrow=none;endArrow=block;startSize=5;endSize=5;strokeColor=#4672c4;spacingTop=0;spacingBottom=0;spacingLeft=0;spacingRight=0;verticalAlign=middle;html=1;labelBackgroundColor=#ffffff;rounded=1;exitX=0.4953271028037383;exitY=1;exitDx=0;exitDy=0;exitPerimeter=0;entryX=0.49504950495049505;entryY=0;entryDx=0;entryDy=0;entryPerimeter=0;" edge="1" parent="1" source="Cari82qWPhB8FJyJu9n--88" target="Cari82qWPhB8FJyJu9n--98">
            <mxGeometry relative="1" as="geometry">
              <mxPoint x="-12" y="-1" as="offset" />
              <Array as="points">
                <mxPoint x="546" y="701.4" />
                <mxPoint x="543.24" y="701.4" />
              </Array>
            </mxGeometry>
          </mxCell>
        </UserObject>
        <UserObject label="" tags="Connector" id="Cari82qWPhB8FJyJu9n--188">
          <mxCell style="vsdxID=276;edgeStyle=none;startArrow=none;endArrow=block;startSize=5;endSize=5;strokeColor=#4672c4;spacingTop=0;spacingBottom=0;spacingLeft=0;spacingRight=0;verticalAlign=middle;html=1;labelBackgroundColor=#ffffff;rounded=1;exitX=0.49504950495049505;exitY=1.0303030303030303;exitDx=0;exitDy=0;exitPerimeter=0;entryX=0.4953271028037383;entryY=0;entryDx=0;entryDy=0;entryPerimeter=0;" edge="1" parent="1" source="Cari82qWPhB8FJyJu9n--98" target="Cari82qWPhB8FJyJu9n--97">
            <mxGeometry relative="1" as="geometry">
              <mxPoint x="11" y="-1" as="offset" />
              <Array as="points">
                <mxPoint x="543" y="773.4" />
                <mxPoint x="545.76" y="773.4" />
              </Array>
            </mxGeometry>
          </mxCell>
        </UserObject>
        <mxCell id="Cari82qWPhB8FJyJu9n--189" style="rounded=1;" vertex="1" parent="1">
          <mxGeometry x="698" y="785" as="geometry" />
        </mxCell>
        <UserObject label="&lt;div style=&quot;font-size: 1px&quot;&gt;&lt;font style=&quot;font-size:11.29px;font-family:Calibri;color:#b15d24;direction:ltr;letter-spacing:0px;line-height:120%;opacity:1&quot;&gt;DIO_ERROR&lt;br/&gt;&lt;/font&gt;&lt;/div&gt;" tags="Connector" id="Cari82qWPhB8FJyJu9n--190">
          <mxCell style="vsdxID=278;edgeStyle=none;startArrow=none;endArrow=block;startSize=5;endSize=5;strokeColor=#ed7d31;spacingTop=0;spacingBottom=0;spacingLeft=0;spacingRight=0;verticalAlign=middle;html=1;labelBackgroundColor=#ffffff;rounded=1;align=center;overflow=width;exitX=1;exitY=0.5151515151515151;exitDx=0;exitDy=0;exitPerimeter=0;" edge="1" parent="1" source="Cari82qWPhB8FJyJu9n--97" target="Cari82qWPhB8FJyJu9n--189">
            <mxGeometry relative="1" as="geometry">
              <mxPoint as="offset" />
              <Array as="points">
                <mxPoint x="625.4" y="803" />
                <mxPoint x="625.4" y="785.14" />
              </Array>
            </mxGeometry>
          </mxCell>
        </UserObject>
        <UserObject label="&lt;div style=&quot;font-size: 1px&quot;&gt;&lt;font style=&quot;font-size:11.29px;font-family:Calibri;color:#345593;direction:ltr;letter-spacing:0px;line-height:120%;opacity:1&quot;&gt;true&lt;br/&gt;&lt;/font&gt;&lt;/div&gt;" tags="Connector" id="Cari82qWPhB8FJyJu9n--191">
          <mxCell style="vsdxID=305;edgeStyle=none;startArrow=none;endArrow=block;startSize=5;endSize=5;strokeColor=#4672c4;spacingTop=0;spacingBottom=0;spacingLeft=0;spacingRight=0;verticalAlign=middle;html=1;labelBackgroundColor=#ffffff;rounded=1;align=center;overflow=width;exitX=1.0135135135135136;exitY=0.5;exitDx=0;exitDy=0;exitPerimeter=0;entryX=0.5087719298245614;entryY=0;entryDx=0;entryDy=0;entryPerimeter=0;" edge="1" parent="1" source="Cari82qWPhB8FJyJu9n--100" target="Cari82qWPhB8FJyJu9n--102">
            <mxGeometry relative="1" as="geometry">
              <mxPoint as="offset" />
              <Array as="points">
                <mxPoint x="263.37" y="1427" />
              </Array>
            </mxGeometry>
          </mxCell>
        </UserObject>
        <UserObject label="&lt;div style=&quot;font-size: 1px&quot;&gt;&lt;font style=&quot;font-size:11.29px;font-family:Calibri;color:#345593;direction:ltr;letter-spacing:0px;line-height:120%;opacity:1&quot;&gt;False&lt;br/&gt;&lt;/font&gt;&lt;/div&gt;" tags="Connector" id="Cari82qWPhB8FJyJu9n--192">
          <mxCell style="vsdxID=310;edgeStyle=none;startArrow=none;endArrow=block;startSize=5;endSize=5;strokeColor=#4672c4;spacingTop=0;spacingBottom=0;spacingLeft=0;spacingRight=0;verticalAlign=middle;html=1;labelBackgroundColor=#ffffff;rounded=1;align=center;overflow=width;exitX=0.5135135135135135;exitY=1;exitDx=0;exitDy=0;exitPerimeter=0;entryX=0.504950495049505;entryY=0;entryDx=0;entryDy=0;entryPerimeter=0;" edge="1" parent="1" source="Cari82qWPhB8FJyJu9n--100" target="Cari82qWPhB8FJyJu9n--103">
            <mxGeometry relative="1" as="geometry">
              <mxPoint x="12" y="-1" as="offset" />
              <Array as="points" />
            </mxGeometry>
          </mxCell>
        </UserObject>
        <UserObject label="" tags="Connector" id="Cari82qWPhB8FJyJu9n--193">
          <mxCell style="vsdxID=311;edgeStyle=none;startArrow=none;endArrow=block;startSize=5;endSize=5;strokeColor=#4672c4;spacingTop=0;spacingBottom=0;spacingLeft=0;spacingRight=0;verticalAlign=middle;html=1;labelBackgroundColor=#ffffff;rounded=1;exitX=0.5087719298245614;exitY=1.0238095238095237;exitDx=0;exitDy=0;exitPerimeter=0;entryX=1.00990099009901;entryY=0.5;entryDx=0;entryDy=0;entryPerimeter=0;" edge="1" parent="1" source="Cari82qWPhB8FJyJu9n--102" target="Cari82qWPhB8FJyJu9n--103">
            <mxGeometry relative="1" as="geometry">
              <mxPoint x="-1" y="-1" as="offset" />
              <Array as="points">
                <mxPoint x="264" y="1554.47" />
              </Array>
            </mxGeometry>
          </mxCell>
        </UserObject>
        <UserObject label="" tags="Connector" id="Cari82qWPhB8FJyJu9n--194">
          <mxCell style="vsdxID=313;edgeStyle=none;startArrow=none;endArrow=block;startSize=5;endSize=5;strokeColor=#4672c4;spacingTop=0;spacingBottom=0;spacingLeft=0;spacingRight=0;verticalAlign=middle;html=1;labelBackgroundColor=#ffffff;rounded=1;exitX=0.504950495049505;exitY=1;exitDx=0;exitDy=0;exitPerimeter=0;entryX=0.5135135135135135;entryY=0;entryDx=0;entryDy=0;entryPerimeter=0;" edge="1" parent="1" source="Cari82qWPhB8FJyJu9n--99" target="Cari82qWPhB8FJyJu9n--100">
            <mxGeometry relative="1" as="geometry">
              <mxPoint x="12" as="offset" />
              <Array as="points" />
            </mxGeometry>
          </mxCell>
        </UserObject>
        <UserObject label="" tags="Connector" id="Cari82qWPhB8FJyJu9n--195">
          <mxCell style="vsdxID=318;edgeStyle=none;startArrow=none;endArrow=block;startSize=5;endSize=5;strokeColor=#4672c4;spacingTop=0;spacingBottom=0;spacingLeft=0;spacingRight=0;verticalAlign=middle;html=1;labelBackgroundColor=#ffffff;rounded=1;exitX=1.0136986301369864;exitY=0.509090909090909;exitDx=0;exitDy=0;exitPerimeter=0;entryX=0;entryY=0.5;entryDx=0;entryDy=0;entryPerimeter=0;" edge="1" parent="1" source="Cari82qWPhB8FJyJu9n--104" target="Cari82qWPhB8FJyJu9n--106">
            <mxGeometry relative="1" as="geometry">
              <mxPoint as="offset" />
              <Array as="points" />
            </mxGeometry>
          </mxCell>
        </UserObject>
        <UserObject label="" tags="Connector" id="Cari82qWPhB8FJyJu9n--196">
          <mxCell style="vsdxID=319;edgeStyle=none;startArrow=none;endArrow=block;startSize=5;endSize=5;strokeColor=#4672c4;spacingTop=0;spacingBottom=0;spacingLeft=0;spacingRight=0;verticalAlign=middle;html=1;labelBackgroundColor=#ffffff;rounded=1;exitX=0.504950495049505;exitY=1;exitDx=0;exitDy=0;exitPerimeter=0;entryX=0.5068493150684932;entryY=0;entryDx=0;entryDy=0;entryPerimeter=0;" edge="1" parent="1" source="Cari82qWPhB8FJyJu9n--103" target="Cari82qWPhB8FJyJu9n--104">
            <mxGeometry relative="1" as="geometry">
              <mxPoint x="12" as="offset" />
              <Array as="points" />
            </mxGeometry>
          </mxCell>
        </UserObject>
        <UserObject label="" tags="Connector" id="Cari82qWPhB8FJyJu9n--197">
          <mxCell style="vsdxID=322;edgeStyle=none;startArrow=none;endArrow=block;startSize=5;endSize=5;strokeColor=#4672c4;spacingTop=0;spacingBottom=0;spacingLeft=0;spacingRight=0;verticalAlign=middle;html=1;labelBackgroundColor=#ffffff;rounded=1;exitX=1.0136986301369864;exitY=0.4909090909090909;exitDx=0;exitDy=0;exitPerimeter=0;entryX=0;entryY=0.5;entryDx=0;entryDy=0;entryPerimeter=0;" edge="1" parent="1" source="Cari82qWPhB8FJyJu9n--108" target="Cari82qWPhB8FJyJu9n--110">
            <mxGeometry relative="1" as="geometry">
              <mxPoint as="offset" />
              <Array as="points" />
            </mxGeometry>
          </mxCell>
        </UserObject>
        <UserObject label="" tags="Connector" id="Cari82qWPhB8FJyJu9n--198">
          <mxCell style="vsdxID=323;edgeStyle=none;startArrow=none;endArrow=block;startSize=5;endSize=5;strokeColor=#4672c4;spacingTop=0;spacingBottom=0;spacingLeft=0;spacingRight=0;verticalAlign=middle;html=1;labelBackgroundColor=#ffffff;rounded=1;exitX=0.5068493150684932;exitY=1.018181818181818;exitDx=0;exitDy=0;exitPerimeter=0;entryX=0.5068493150684932;entryY=0;entryDx=0;entryDy=0;entryPerimeter=0;" edge="1" parent="1" source="Cari82qWPhB8FJyJu9n--104" target="Cari82qWPhB8FJyJu9n--108">
            <mxGeometry relative="1" as="geometry">
              <mxPoint x="12" y="-1" as="offset" />
              <Array as="points" />
            </mxGeometry>
          </mxCell>
        </UserObject>
        <UserObject label="" tags="Connector" id="Cari82qWPhB8FJyJu9n--199">
          <mxCell style="vsdxID=326;edgeStyle=none;startArrow=none;endArrow=block;startSize=5;endSize=5;strokeColor=#4672c4;spacingTop=0;spacingBottom=0;spacingLeft=0;spacingRight=0;verticalAlign=middle;html=1;labelBackgroundColor=#ffffff;rounded=1;exitX=1.0136986301369864;exitY=0.4909090909090909;exitDx=0;exitDy=0;exitPerimeter=0;entryX=0;entryY=0.5;entryDx=0;entryDy=0;entryPerimeter=0;" edge="1" parent="1" source="Cari82qWPhB8FJyJu9n--112" target="Cari82qWPhB8FJyJu9n--114">
            <mxGeometry relative="1" as="geometry">
              <mxPoint as="offset" />
              <Array as="points" />
            </mxGeometry>
          </mxCell>
        </UserObject>
        <UserObject label="" tags="Connector" id="Cari82qWPhB8FJyJu9n--200">
          <mxCell style="vsdxID=329;edgeStyle=none;startArrow=none;endArrow=block;startSize=5;endSize=5;strokeColor=#4672c4;spacingTop=0;spacingBottom=0;spacingLeft=0;spacingRight=0;verticalAlign=middle;html=1;labelBackgroundColor=#ffffff;rounded=1;exitX=1.0136986301369864;exitY=0.4909090909090909;exitDx=0;exitDy=0;exitPerimeter=0;entryX=0;entryY=0.5;entryDx=0;entryDy=0;entryPerimeter=0;" edge="1" parent="1" source="Cari82qWPhB8FJyJu9n--116" target="Cari82qWPhB8FJyJu9n--118">
            <mxGeometry relative="1" as="geometry">
              <mxPoint as="offset" />
              <Array as="points" />
            </mxGeometry>
          </mxCell>
        </UserObject>
        <UserObject label="" tags="Connector" id="Cari82qWPhB8FJyJu9n--201">
          <mxCell style="vsdxID=330;edgeStyle=none;startArrow=none;endArrow=block;startSize=5;endSize=5;strokeColor=#4672c4;spacingTop=0;spacingBottom=0;spacingLeft=0;spacingRight=0;verticalAlign=middle;html=1;labelBackgroundColor=#ffffff;rounded=1;exitX=0.5068493150684932;exitY=1;exitDx=0;exitDy=0;exitPerimeter=0;entryX=0.5068493150684932;entryY=0;entryDx=0;entryDy=0;entryPerimeter=0;" edge="1" parent="1" source="Cari82qWPhB8FJyJu9n--108" target="Cari82qWPhB8FJyJu9n--112">
            <mxGeometry relative="1" as="geometry">
              <mxPoint x="12" as="offset" />
              <Array as="points" />
            </mxGeometry>
          </mxCell>
        </UserObject>
        <UserObject label="" tags="Connector" id="Cari82qWPhB8FJyJu9n--203">
          <mxCell style="vsdxID=268;edgeStyle=none;startArrow=none;endArrow=block;startSize=5;endSize=5;strokeColor=#4672c4;spacingTop=0;spacingBottom=0;spacingLeft=0;spacingRight=0;verticalAlign=middle;html=1;labelBackgroundColor=#ffffff;rounded=1;exitX=0.504950495049505;exitY=1;exitDx=0;exitDy=0;exitPerimeter=0;entryX=0.504950495049505;entryY=0;entryDx=0;entryDy=0;entryPerimeter=0;" edge="1" parent="1" source="Cari82qWPhB8FJyJu9n--94" target="Cari82qWPhB8FJyJu9n--95">
            <mxGeometry relative="1" as="geometry">
              <mxPoint x="12" y="-1" as="offset" />
              <Array as="points" />
            </mxGeometry>
          </mxCell>
        </UserObject>
        <UserObject label="" tags="Background" id="Cari82qWPhB8FJyJu9n--8">
          <mxCell style="vsdxID=144;fillColor=#345593;gradientColor=none;fillOpacity=0;shape=stencil(nZBLDoAgDERP0z3SIyjew0SURgSD+Lu9kMZoXLhwN9N5bdMClrNpJg1SzDH4QW/URgNYgZTkjA4UkwJUgGXng+6DX1zLfmoymdXo1zxh5z6RO6Q42BWCfc2oJfdAr/AX/IH+BF/rk7hv7MjaZ/L+RirxJ1Gd);strokeColor=#233862;strokeWidth=2;points=[];labelBackgroundColor=none;rounded=1;html=1;whiteSpace=wrap;" vertex="1" parent="1">
            <mxGeometry x="446" y="20" width="319" height="450" as="geometry" />
          </mxCell>
        </UserObject>
        <UserObject label="" tags="Background" id="Cari82qWPhB8FJyJu9n--28">
          <mxCell style="vsdxID=145;fillColor=none;gradientColor=none;strokeColor=none;strokeWidth=2;points=[];labelBackgroundColor=none;rounded=1;html=1;whiteSpace=wrap;" vertex="1" parent="1">
            <mxGeometry x="446" y="20" width="274" height="450" as="geometry" />
          </mxCell>
        </UserObject>
        <mxCell id="Cari82qWPhB8FJyJu9n--29" style="vsdxID=146;fillColor=#3d64ac;gradientColor=none;fillOpacity=0;shape=stencil(nZBLDoAgDERP0z3SIyjew0SURgSD+Lu9kMZoXLhwN9O+tukAlrNpJg1SzDH4QW/URgNYgZTkjA4UkwJUgGXng+6DX1zLfmoymdXo17xh5zmRJ6Q42BWCfc2oJfdAr+Yv+AP9Cb7OJ3H/2JG1HNGz/84klThPVCc=);strokeColor=#233862;strokeWidth=2;points=[];labelBackgroundColor=none;rounded=1;html=1;whiteSpace=wrap;" vertex="1" parent="Cari82qWPhB8FJyJu9n--28">
          <mxGeometry width="274" height="450" as="geometry" />
        </mxCell>
        <mxCell id="Cari82qWPhB8FJyJu9n--30" value="&lt;div style=&quot;font-size: 1px&quot;&gt;&lt;p style=&quot;margin: 0px; text-indent: 0px; vertical-align: middle; direction: ltr;&quot;&gt;&lt;font style=&quot;font-size: 14.82px; font-family: &amp;quot;JetBrains Mono&amp;quot;; direction: ltr; letter-spacing: 0px; line-height: 120%; opacity: 1;&quot;&gt;DIO_write&lt;/font&gt;&lt;/p&gt;&lt;/div&gt;" style="verticalAlign=middle;align=center;overflow=width;vsdxID=147;fillColor=#3d64ac;gradientColor=none;shape=stencil(nZBLDoAgDERP0z3SIyjew0SURgSD+Lu9kMZoXLhwN9O+tukAlrNpJg1SzDH4QW/URgNYgZTkjA4UkwJUgGXng+6DX1zLfmoymdXo17xh5zmRJ6Q42BWCfc2oJfdAr+Yv+AP9Cb7OJ3H/2JG1HNGz/84klThPVCc=);strokeColor=#233862;strokeWidth=2;points=[];labelBackgroundColor=none;rounded=1;html=1;whiteSpace=wrap;fontColor=#FFFFFF;" vertex="1" parent="Cari82qWPhB8FJyJu9n--28">
          <mxGeometry width="274" height="30" as="geometry" />
        </mxCell>
        <UserObject label="" tags="Background" id="Cari82qWPhB8FJyJu9n--48">
          <mxCell style="vsdxID=149;fillColor=none;gradientColor=none;strokeColor=none;points=[];labelBackgroundColor=none;rounded=1;html=1;whiteSpace=wrap;" vertex="1" parent="Cari82qWPhB8FJyJu9n--28">
            <mxGeometry x="-46.843260188087775" width="296.33228840125395" height="400" as="geometry" />
          </mxCell>
        </UserObject>
        <mxCell id="Cari82qWPhB8FJyJu9n--49" value="&lt;div style=&quot;font-size: 1px&quot;&gt;&lt;/div&gt;" style="verticalAlign=middle;align=center;overflow=width;vsdxID=150;rotation=90;fillColor=none;gradientColor=none;fillOpacity=0;strokeColor=none;strokeWidth=2;spacingTop=-1;spacingBottom=-1;spacingLeft=-1;spacingRight=-1;points=[];labelBackgroundColor=none;rounded=1;html=1;whiteSpace=wrap;" vertex="1" parent="Cari82qWPhB8FJyJu9n--48">
          <mxGeometry x="-24.050156739811914" y="27" width="343.5736677115988" height="345" as="geometry" />
        </mxCell>
        <UserObject label="&lt;div style=&quot;font-size: 1px&quot;&gt;&lt;font style=&quot;font-size:11.29px;font-family:Calibri;color:#feffff;direction:ltr;letter-spacing:0px;line-height:120%;opacity:1&quot;&gt;Start&lt;br/&gt;&lt;/font&gt;&lt;/div&gt;" Function="EN_DIO_Error_T DIO_write(uint8_t pinNumber, EN_DIO_PORT_T portNumber, uint8_t value); " tags="Flowchart" id="Cari82qWPhB8FJyJu9n--73">
          <mxCell style="verticalAlign=middle;align=center;overflow=width;vsdxID=152;fillColor=#70ad47;gradientColor=none;shape=stencil(tVLREoIgEPwaHnEQxsl3s/9gEpSJwDko7e+DsEkze2l627vdu5uFRaxyHe8FosR5sCcxqMZ3iO0Rpcp0ApQPCLEasUpaEC3Yi2lS3fOojOhsr3HDmObyMtsVcYqS29Qh5FEfklwrM5OXeUa/yjkcAwfr7TDpiyTfXvjkMR+Vw2A998qaBac5tAKHU1hq3i4oNwjRr9ofvayt/+Rk+yX/4iWA159KpXWKxJx/z0Bopfyw+g4=);strokeColor=#c8c8c8;spacingTop=-1;spacingBottom=-1;spacingLeft=-1;spacingRight=-1;points=[[0.5,1,0],[0.5,0,0],[0,0.5,0],[1,0.5,0]];labelBackgroundColor=none;rounded=1;html=1;whiteSpace=wrap;" vertex="1" parent="Cari82qWPhB8FJyJu9n--48">
            <mxGeometry x="109.9435736677116" y="42" width="86.75235109717869" height="38" as="geometry" />
          </mxCell>
        </UserObject>
        <mxCell id="Cari82qWPhB8FJyJu9n--212" value="Fail" style="text;html=1;strokeColor=none;fillColor=none;align=center;verticalAlign=middle;whiteSpace=wrap;rounded=0;fontSize=11;fontFamily=Helvetica;fontColor=#CC0000;" vertex="1" parent="Cari82qWPhB8FJyJu9n--48">
          <mxGeometry x="212.15673981191225" y="111" width="33.49843260188088" height="18" as="geometry" />
        </mxCell>
        <UserObject label="" Function="EN_DIO_Error_T DIO_init(uint8_t pinNumber, EN_DIO_PORT_T portNumber, EN_DIO_DIRECTION_T direction);" tags="Flowchart" id="Cari82qWPhB8FJyJu9n--213">
          <mxCell style="vsdxID=219;fillColor=#fec000;gradientColor=none;shape=stencil(UzV2Ls5ILEhVNTIoLinKz04tz0wpyVA1dlE1MsrMy0gtyiwBslSNXVWNndPyi1LTi/JL81Ig/IJEkEoQKze/DGRCBUSfAUiHkUElhGcK4bpBVOZk5iGpNEVVikeloQHZpsK0YlWLz1QgA+HFtMycHEgIIcujBwlQCBKcxq4A);strokeColor=#c8c8c8;spacingTop=-1;spacingBottom=-1;spacingLeft=-1;spacingRight=-1;points=[[0,0.5,0],[1,0.5,0],[0.5,0,0],[0.5,1,0]];labelBackgroundColor=none;rounded=1;html=1;whiteSpace=wrap;" vertex="1" parent="Cari82qWPhB8FJyJu9n--48">
            <mxGeometry x="110.19266457680253" y="177" width="86.75235109717869" height="76" as="geometry" />
          </mxCell>
        </UserObject>
        <mxCell id="Cari82qWPhB8FJyJu9n--214" value="&lt;div style=&quot;font-size: 1px&quot;&gt;&lt;font style=&quot;font-size:11.29px;font-family:Calibri;color:#feffff;direction:ltr;letter-spacing:0px;line-height:120%;opacity:1&quot;&gt;value is&lt;br&gt;LOW or HIGH&lt;/font&gt;&lt;/div&gt;&lt;div style=&quot;font-size: 1px&quot;&gt;&lt;font style=&quot;font-size:11.29px;font-family:Calibri;color:#feffff;direction:ltr;letter-spacing:0px;line-height:120%;opacity:1&quot;&gt;(0 or 1)&lt;/font&gt;&lt;/div&gt;" style="text;vsdxID=219;fillColor=none;gradientColor=none;strokeColor=none;spacingTop=-1;spacingBottom=-1;spacingLeft=-1;spacingRight=-1;points=[[0,0.5,0],[1,0.5,0],[0.5,0,0],[0.5,1,0]];labelBackgroundColor=none;rounded=1;html=1;whiteSpace=wrap;verticalAlign=middle;align=center;overflow=width;;html=1;" vertex="1" parent="Cari82qWPhB8FJyJu9n--213">
          <mxGeometry x="7.275172413793104" y="9.33" width="72.72595611285267" height="57.15" as="geometry" />
        </mxCell>
        <UserObject label="" tags="Background" id="Cari82qWPhB8FJyJu9n--47">
          <mxCell style="vsdxID=148;fillColor=#345593;gradientColor=none;shape=stencil(nZBLDoAgDERP0z3SIyDew0QUooJB/N1eSGM0LFywm2lf23QAxarbRQFna/BuVIfpggasgXNjtfImRAUoAUXvvBq822xHfmkTmdTs9rThpDmWJji7yFWMfEPoZOwHfZpF8A9aCGbno3h/jCYPIJYoPJQ3);strokeColor=#233862;strokeWidth=2;points=[];labelBackgroundColor=none;rounded=1;html=1;whiteSpace=wrap;" vertex="1" parent="1">
            <mxGeometry x="420" y="71" width="345" height="400" as="geometry" />
          </mxCell>
        </UserObject>
        <UserObject label="&lt;div style=&quot;font-size: 1px&quot;&gt;&lt;font style=&quot;font-size:11.29px;font-family:Calibri;color:#feffff;direction:ltr;letter-spacing:0px;line-height:120%;opacity:1&quot;&gt;Return LED_ERROR&lt;br/&gt;&lt;/font&gt;&lt;/div&gt;" Function="EN_DIO_Error_T DIO_write(uint8_t pinNumber, EN_DIO_PORT_T portNumber, uint8_t value); " tags="Flowchart" id="Cari82qWPhB8FJyJu9n--74">
          <mxCell style="verticalAlign=middle;align=center;overflow=width;vsdxID=159;fillColor=#b15d24;gradientColor=none;shape=stencil(tVLREoIgEPwaHnEQxsl3s/9gEpSJwDko7e+DsEkze2l627vdu5uFRaxyHe8FosR5sCcxqMZ3iO0Rpcp0ApQPCLEasUpaEC3Yi2lS3fOojOhsr3HDmObyMtsVcYqS29Qh5FEfklwrM5OXeUa/yjkcAwfr7TDpiyTfXvjkMR+Vw2A998qaBac5tAKHU1hq3i4oNwjRr9ofvayt/+Rk+yX/4iWA159KpXWKxJx/z0Bopfyw+g4=);strokeColor=#ae5a21;spacingTop=-1;spacingBottom=-1;spacingLeft=-1;spacingRight=-1;points=[[0.5,1,0],[0.5,0,0],[0,0.5,0],[1,0.5,0]];labelBackgroundColor=none;rounded=1;html=1;whiteSpace=wrap;" vertex="1" parent="1">
            <mxGeometry x="605" y="369" width="101" height="38" as="geometry" />
          </mxCell>
        </UserObject>
        <UserObject label="&lt;div style=&quot;font-size: 1px&quot;&gt;&lt;font style=&quot;font-size:11.29px;font-family:Calibri;color:#feffff;direction:ltr;letter-spacing:0px;line-height:120%;opacity:1&quot;&gt;Return LED_OK&lt;br/&gt;&lt;/font&gt;&lt;/div&gt;" Function="EN_DIO_Error_T DIO_write(uint8_t pinNumber, EN_DIO_PORT_T portNumber, uint8_t value); " tags="Flowchart" id="Cari82qWPhB8FJyJu9n--75">
          <mxCell style="verticalAlign=middle;align=center;overflow=width;vsdxID=160;fillColor=#70ad47;gradientColor=none;shape=stencil(tVLREoIgEPwaHnEQxsl3s/9gEpSJwDko7e+DsEkze2l627vdu5uFRaxyHe8FosR5sCcxqMZ3iO0Rpcp0ApQPCLEasUpaEC3Yi2lS3fOojOhsr3HDmObyMtsVcYqS29Qh5FEfklwrM5OXeUa/yjkcAwfr7TDpiyTfXvjkMR+Vw2A998qaBac5tAKHU1hq3i4oNwjRr9ofvayt/+Rk+yX/4iWA159KpXWKxJx/z0Bopfyw+g4=);strokeColor=#c8c8c8;spacingTop=-1;spacingBottom=-1;spacingLeft=-1;spacingRight=-1;points=[[0.5,1,0],[0.5,0,0],[0,0.5,0],[1,0.5,0]];labelBackgroundColor=none;rounded=1;html=1;whiteSpace=wrap;" vertex="1" parent="1">
            <mxGeometry x="474" y="404" width="101" height="38" as="geometry" />
          </mxCell>
        </UserObject>
        <UserObject label="&lt;div style=&quot;font-size: 1px&quot;&gt;&lt;font style=&quot;font-size:11.29px;font-family:Calibri;color:#e0a900;direction:ltr;letter-spacing:0px;line-height:120%;opacity:1&quot;&gt;Check (1)&lt;br&gt;&lt;/font&gt;&lt;/div&gt;" Function="EN_DIO_Error_T DIO_write(uint8_t pinNumber, EN_DIO_PORT_T portNumber, uint8_t value); " tags="Flowchart" id="Cari82qWPhB8FJyJu9n--84">
          <mxCell style="verticalAlign=middle;align=center;overflow=width;vsdxID=235;shape=stencil(nZLRDsIgDEW/pq+GlRh9n/M/loyNRoSFodO/F9JMHWYm29u99LTkFkCWg657BSiG4N1FjdQEDfIEiGS18hSiAlmBLFvnVefdzTbs+zqRSV3dPU14cJ9IHSie7ArB/syoIfuFTsVN8B90I5hdH8UnY0vG8Ire9aUFFLjbr4iV0zN2Pvl4WDP5h15OlyWLIn/teMQ/RVYv);spacingTop=-1;spacingBottom=-1;spacingLeft=-1;spacingRight=-1;points=[[0,0.5,0],[1,0.5,0],[0.5,1,0],[0.5,0,0]];labelBackgroundColor=none;rounded=1;html=1;whiteSpace=wrap;" vertex="1" parent="1">
            <mxGeometry x="502" y="135" width="101" height="35" as="geometry" />
          </mxCell>
        </UserObject>
        <UserObject label="" Function="EN_DIO_Error_T DIO_write(uint8_t pinNumber, EN_DIO_PORT_T portNumber, uint8_t value); " tags="Flowchart" id="Cari82qWPhB8FJyJu9n--85">
          <mxCell style="vsdxID=281;fillColor=#4672c4;gradientColor=none;shape=stencil(UzV2Ls5ILEhVNTIoLinKz04tz0wpyVA1dlE1MsrMy0gtyiwBslSNXVWNndPyi1LTi/JL81Ig/IJEkEoQKze/DGRCBUSfrqGFnrkpSJuRQSVEyNDAAMx3g6jPycxDUm9hqGdEgnJDTOPxqSZFMWGXAxkIb6dl5uRAQg1ZHj2YgEKQIDZ2BQA=);strokeColor=#c8c8c8;spacingTop=-1;spacingBottom=-1;spacingLeft=-1;spacingRight=-1;points=[[0,0.5,0],[1,0.5,0],[0.5,1,0],[0.5,0,0]];labelBackgroundColor=none;rounded=1;html=1;whiteSpace=wrap;" vertex="1" parent="1">
            <mxGeometry x="502" y="301" width="101" height="50" as="geometry" />
          </mxCell>
        </UserObject>
        <mxCell id="Cari82qWPhB8FJyJu9n--86" value="&lt;div style=&quot;font-size: 1px&quot;&gt;&lt;font style=&quot;font-size:11.29px;font-family:Calibri;color:#feffff;direction:ltr;letter-spacing:0px;line-height:120%;opacity:1&quot;&gt;Write value to pin/port&lt;br&gt;&lt;/font&gt;&lt;/div&gt;" style="text;vsdxID=281;fillColor=none;gradientColor=none;strokeColor=none;spacingTop=-1;spacingBottom=-1;spacingLeft=-1;spacingRight=-1;points=[[0,0.5,0],[1,0.5,0],[0.5,1,0],[0.5,0,0]];labelBackgroundColor=none;rounded=1;html=1;whiteSpace=wrap;verticalAlign=middle;align=center;overflow=width;;html=1;" vertex="1" parent="Cari82qWPhB8FJyJu9n--85">
          <mxGeometry x="16.93" y="-0.13157894736842107" width="67.73" height="50.131578947368425" as="geometry" />
        </mxCell>
        <UserObject label="" tags="Connector" id="Cari82qWPhB8FJyJu9n--178">
          <mxCell style="vsdxID=236;edgeStyle=none;startArrow=none;endArrow=block;startSize=5;endSize=5;strokeColor=#4672c4;spacingTop=0;spacingBottom=0;spacingLeft=0;spacingRight=0;verticalAlign=middle;html=1;labelBackgroundColor=#ffffff;rounded=1;exitX=0.504950495049505;exitY=1;exitDx=0;exitDy=0;exitPerimeter=0;entryX=0.504950495049505;entryY=0;entryDx=0;entryDy=0;entryPerimeter=0;" edge="1" parent="1" source="Cari82qWPhB8FJyJu9n--73" target="Cari82qWPhB8FJyJu9n--84">
            <mxGeometry relative="1" as="geometry">
              <mxPoint x="12" y="-1" as="offset" />
              <Array as="points" />
            </mxGeometry>
          </mxCell>
        </UserObject>
        <UserObject label="&lt;div style=&quot;font-size: 1px&quot;&gt;&lt;font style=&quot;font-size:11.29px;font-family:Calibri;color:#b15d24;direction:ltr;letter-spacing:0px;line-height:120%;opacity:1&quot;&gt;FAIL&lt;br/&gt;&lt;/font&gt;&lt;/div&gt;" tags="Connector" id="Cari82qWPhB8FJyJu9n--179">
          <mxCell style="vsdxID=237;edgeStyle=none;startArrow=none;endArrow=block;startSize=5;endSize=5;strokeColor=#ed7d31;spacingTop=0;spacingBottom=0;spacingLeft=0;spacingRight=0;verticalAlign=middle;html=1;labelBackgroundColor=#ffffff;rounded=1;align=center;overflow=width;exitX=1.00990099009901;exitY=0.5;exitDx=0;exitDy=0;exitPerimeter=0;entryX=0.49504950495049505;entryY=0;entryDx=0;entryDy=0;entryPerimeter=0;" edge="1" parent="1" source="Cari82qWPhB8FJyJu9n--84" target="Cari82qWPhB8FJyJu9n--74">
            <mxGeometry relative="1" as="geometry">
              <mxPoint as="offset" />
              <Array as="points">
                <mxPoint x="655" y="152" />
              </Array>
            </mxGeometry>
          </mxCell>
        </UserObject>
        <UserObject label="" tags="Connector" id="Cari82qWPhB8FJyJu9n--180">
          <mxCell style="vsdxID=240;edgeStyle=none;startArrow=none;endArrow=block;startSize=5;endSize=5;strokeColor=#70ad47;spacingTop=0;spacingBottom=0;spacingLeft=0;spacingRight=0;verticalAlign=middle;html=1;labelBackgroundColor=#ffffff;rounded=1;exitX=0.504950495049505;exitY=1;exitDx=0;exitDy=0;exitPerimeter=0;entryX=0.49504950495049505;entryY=0;entryDx=0;entryDy=0;entryPerimeter=0;" edge="1" parent="1" source="Cari82qWPhB8FJyJu9n--85" target="Cari82qWPhB8FJyJu9n--75">
            <mxGeometry relative="1" as="geometry">
              <mxPoint x="-1" as="offset" />
              <Array as="points">
                <mxPoint x="553" y="375.4" />
                <mxPoint x="524.56" y="375.4" />
              </Array>
            </mxGeometry>
          </mxCell>
        </UserObject>
        <UserObject label="" tags="Connector" id="Cari82qWPhB8FJyJu9n--202">
          <mxCell style="vsdxID=239;edgeStyle=none;startArrow=none;endArrow=block;startSize=5;endSize=5;strokeColor=#4672c4;spacingTop=0;spacingBottom=0;spacingLeft=0;spacingRight=0;verticalAlign=middle;html=1;labelBackgroundColor=#ffffff;rounded=1;entryX=0.504950495049505;entryY=0;entryDx=0;entryDy=0;entryPerimeter=0;" edge="1" parent="1" target="Cari82qWPhB8FJyJu9n--85">
            <mxGeometry relative="1" as="geometry">
              <mxPoint x="12" y="-1" as="offset" />
              <Array as="points" />
              <mxPoint x="553" y="271" as="sourcePoint" />
            </mxGeometry>
          </mxCell>
        </UserObject>
        <mxCell id="Cari82qWPhB8FJyJu9n--204" value="False" style="text;html=1;strokeColor=none;fillColor=none;align=center;verticalAlign=middle;whiteSpace=wrap;rounded=0;fontSize=11;fontFamily=Helvetica;fontColor=#CC0000;" vertex="1" parent="1">
          <mxGeometry x="190" y="350" width="39" height="18" as="geometry" />
        </mxCell>
        <UserObject label="" tags="Connector" id="Cari82qWPhB8FJyJu9n--215">
          <mxCell style="vsdxID=239;edgeStyle=none;startArrow=none;endArrow=block;startSize=5;endSize=5;strokeColor=#4672c4;spacingTop=0;spacingBottom=0;spacingLeft=0;spacingRight=0;verticalAlign=middle;html=1;labelBackgroundColor=#ffffff;rounded=1;entryX=0.5;entryY=0;entryDx=0;entryDy=0;entryPerimeter=0;" edge="1" parent="1" target="Cari82qWPhB8FJyJu9n--213">
            <mxGeometry relative="1" as="geometry">
              <mxPoint x="12" y="-1" as="offset" />
              <Array as="points" />
              <mxPoint x="552.36" y="170" as="sourcePoint" />
              <mxPoint x="552" y="191" as="targetPoint" />
            </mxGeometry>
          </mxCell>
        </UserObject>
      </root>
    </mxGraphModel>
  </diagram>
</mxfile>
